<svg width="250" height="250" viewBox="0 0 250 250" fill="none" xmlns="http://www.w3.org/2000/svg">
<g clip-path="url(#clip0_325_1275)">
<path d="M125 250C194.036 250 250 194.036 250 125C250 55.9644 194.036 0 125 0C55.9644 0 0 55.9644 0 125C0 194.036 55.9644 250 125 250Z" fill="#E6E6EB"/>
<mask id="mask0_325_1275" style="mask-type:luminance" maskUnits="userSpaceOnUse" x="217" y="71" width="9" height="10">
<path d="M217.01 71.99H225.06V80.04H217.01V71.99Z" fill="white"/>
</mask>
<g mask="url(#mask0_325_1275)">
<mask id="mask1_325_1275" style="mask-type:luminance" maskUnits="userSpaceOnUse" x="217" y="71" width="9" height="10">
<path d="M217.01 71.99H225.06V80.04H217.01V71.99Z" fill="white"/>
</mask>
<g mask="url(#mask1_325_1275)">
<path d="M220.79 79.86L220.22 77.59C220.171 77.408 220.075 77.2421 219.941 77.1087C219.808 76.9754 219.642 76.8793 219.46 76.83L217.19 76.26C217.138 76.2449 217.092 76.2133 217.06 76.17C217.028 76.1267 217.01 76.0741 217.01 76.02C217.01 75.9659 217.028 75.9133 217.06 75.87C217.092 75.8267 217.138 75.7951 217.19 75.78L219.46 75.21C219.642 75.1607 219.808 75.0646 219.941 74.9313C220.075 74.7979 220.171 74.632 220.22 74.45L220.79 72.18C220.805 72.1281 220.837 72.0825 220.88 72.05C220.923 72.0175 220.976 72 221.03 72C221.084 72 221.137 72.0175 221.18 72.05C221.223 72.0825 221.255 72.1281 221.27 72.18L221.84 74.45C221.889 74.632 221.985 74.7979 222.119 74.9313C222.252 75.0646 222.418 75.1607 222.6 75.21L224.87 75.78C224.922 75.7951 224.968 75.8267 225 75.87C225.032 75.9133 225.05 75.9659 225.05 76.02C225.05 76.0741 225.032 76.1267 225 76.17C224.968 76.2133 224.922 76.2449 224.87 76.26L222.6 76.83C222.418 76.8793 222.252 76.9754 222.119 77.1087C221.985 77.2421 221.889 77.408 221.84 77.59L221.27 79.86C221.255 79.9119 221.223 79.9575 221.18 79.99C221.137 80.0225 221.084 80.04 221.03 80.04C220.976 80.04 220.923 80.0225 220.88 79.99C220.837 79.9575 220.805 79.9119 220.79 79.86Z" fill="#7B7C8E"/>
</g>
</g>
<mask id="mask2_325_1275" style="mask-type:luminance" maskUnits="userSpaceOnUse" x="169" y="34" width="9" height="10">
<path d="M169.01 34.99H177.06V43.04H169.01V34.99Z" fill="white"/>
</mask>
<g mask="url(#mask2_325_1275)">
<mask id="mask3_325_1275" style="mask-type:luminance" maskUnits="userSpaceOnUse" x="169" y="34" width="9" height="10">
<path d="M169.01 34.99H177.06V43.04H169.01V34.99Z" fill="white"/>
</mask>
<g mask="url(#mask3_325_1275)">
<path d="M172.79 42.86L172.22 40.59C172.171 40.408 172.075 40.2421 171.941 40.1087C171.808 39.9754 171.642 39.8793 171.46 39.83L169.19 39.26C169.138 39.2449 169.092 39.2133 169.06 39.17C169.028 39.1267 169.01 39.0741 169.01 39.02C169.01 38.9659 169.028 38.9133 169.06 38.87C169.092 38.8267 169.138 38.7951 169.19 38.78L171.46 38.21C171.642 38.1607 171.808 38.0646 171.941 37.9313C172.075 37.7979 172.171 37.632 172.22 37.45L172.79 35.18C172.805 35.1281 172.837 35.0825 172.88 35.05C172.923 35.0175 172.976 35 173.03 35C173.084 35 173.137 35.0175 173.18 35.05C173.223 35.0825 173.255 35.1281 173.27 35.18L173.84 37.45C173.889 37.632 173.985 37.7979 174.119 37.9313C174.252 38.0646 174.418 38.1607 174.6 38.21L176.87 38.78C176.922 38.7951 176.968 38.8267 177 38.87C177.032 38.9133 177.05 38.9659 177.05 39.02C177.05 39.0741 177.032 39.1267 177 39.17C176.968 39.2133 176.922 39.2449 176.87 39.26L174.6 39.83C174.418 39.8793 174.252 39.9754 174.119 40.1087C173.985 40.2421 173.889 40.408 173.84 40.59L173.27 42.86C173.255 42.9119 173.223 42.9575 173.18 42.99C173.137 43.0225 173.084 43.04 173.03 43.04C172.976 43.04 172.923 43.0225 172.88 42.99C172.837 42.9575 172.805 42.9119 172.79 42.86Z" fill="#7B7C8E"/>
</g>
</g>
<mask id="mask4_325_1275" style="mask-type:luminance" maskUnits="userSpaceOnUse" x="53" y="47" width="9" height="10">
<path d="M53.01 47.99H61.06V56.04H53.01V47.99Z" fill="white"/>
</mask>
<g mask="url(#mask4_325_1275)">
<mask id="mask5_325_1275" style="mask-type:luminance" maskUnits="userSpaceOnUse" x="53" y="47" width="9" height="10">
<path d="M53.01 47.99H61.06V56.04H53.01V47.99Z" fill="white"/>
</mask>
<g mask="url(#mask5_325_1275)">
<path d="M56.79 55.86L56.22 53.59C56.1707 53.408 56.0746 53.2421 55.9413 53.1087C55.8079 52.9754 55.642 52.8793 55.46 52.83L53.19 52.26C53.1381 52.2449 53.0925 52.2133 53.06 52.17C53.0276 52.1267 53.01 52.0741 53.01 52.02C53.01 51.9659 53.0276 51.9133 53.06 51.87C53.0925 51.8267 53.1381 51.7951 53.19 51.78L55.46 51.21C55.642 51.1607 55.8079 51.0646 55.9413 50.9313C56.0746 50.7979 56.1707 50.632 56.22 50.45L56.79 48.18C56.8052 48.1281 56.8367 48.0825 56.88 48.05C56.9233 48.0175 56.9759 48 57.03 48C57.0841 48 57.1367 48.0175 57.18 48.05C57.2233 48.0825 57.2549 48.1281 57.27 48.18L57.84 50.45C57.8893 50.632 57.9854 50.7979 58.1188 50.9313C58.2521 51.0646 58.418 51.1607 58.6 51.21L60.87 51.78C60.9219 51.7951 60.9676 51.8267 61 51.87C61.0325 51.9133 61.05 51.9659 61.05 52.02C61.05 52.0741 61.0325 52.1267 61 52.17C60.9676 52.2133 60.9219 52.2449 60.87 52.26L58.6 52.83C58.418 52.8793 58.2521 52.9754 58.1188 53.1087C57.9854 53.2421 57.8893 53.408 57.84 53.59L57.27 55.86C57.2549 55.9119 57.2233 55.9575 57.18 55.99C57.1367 56.0225 57.0841 56.04 57.03 56.04C56.9759 56.04 56.9233 56.0225 56.88 55.99C56.8367 55.9575 56.8052 55.9119 56.79 55.86Z" fill="#7B7C8E"/>
</g>
</g>
<mask id="mask6_325_1275" style="mask-type:luminance" maskUnits="userSpaceOnUse" x="207" y="126" width="9" height="10">
<path d="M207.01 126.99H215.06V135.04H207.01V126.99Z" fill="white"/>
</mask>
<g mask="url(#mask6_325_1275)">
<mask id="mask7_325_1275" style="mask-type:luminance" maskUnits="userSpaceOnUse" x="207" y="126" width="9" height="10">
<path d="M207.01 126.99H215.06V135.04H207.01V126.99Z" fill="white"/>
</mask>
<g mask="url(#mask7_325_1275)">
<path d="M210.79 134.86L210.22 132.59C210.171 132.408 210.075 132.242 209.941 132.109C209.808 131.975 209.642 131.879 209.46 131.83L207.19 131.26C207.138 131.245 207.092 131.213 207.06 131.17C207.028 131.127 207.01 131.074 207.01 131.02C207.01 130.966 207.028 130.913 207.06 130.87C207.092 130.827 207.138 130.795 207.19 130.78L209.46 130.21C209.642 130.161 209.808 130.065 209.941 129.931C210.075 129.798 210.171 129.632 210.22 129.45L210.79 127.18C210.805 127.128 210.837 127.082 210.88 127.05C210.923 127.018 210.976 127 211.03 127C211.084 127 211.137 127.018 211.18 127.05C211.223 127.082 211.255 127.128 211.27 127.18L211.84 129.45C211.889 129.632 211.985 129.798 212.119 129.931C212.252 130.065 212.418 130.161 212.6 130.21L214.87 130.78C214.922 130.795 214.968 130.827 215 130.87C215.032 130.913 215.05 130.966 215.05 131.02C215.05 131.074 215.032 131.127 215 131.17C214.968 131.213 214.922 131.245 214.87 131.26L212.6 131.83C212.418 131.879 212.252 131.975 212.119 132.109C211.985 132.242 211.889 132.408 211.84 132.59L211.27 134.86C211.255 134.912 211.223 134.958 211.18 134.99C211.137 135.022 211.084 135.04 211.03 135.04C210.976 135.04 210.923 135.022 210.88 134.99C210.837 134.958 210.805 134.912 210.79 134.86Z" fill="#7B7C8E"/>
</g>
</g>
<mask id="mask8_325_1275" style="mask-type:luminance" maskUnits="userSpaceOnUse" x="54" y="170" width="9" height="10">
<path d="M54.01 170.99H62.06V179.04H54.01V170.99Z" fill="white"/>
</mask>
<g mask="url(#mask8_325_1275)">
<mask id="mask9_325_1275" style="mask-type:luminance" maskUnits="userSpaceOnUse" x="54" y="170" width="9" height="10">
<path d="M54.01 170.99H62.06V179.04H54.01V170.99Z" fill="white"/>
</mask>
<g mask="url(#mask9_325_1275)">
<path d="M57.79 178.86L57.22 176.59C57.1707 176.408 57.0746 176.242 56.9413 176.109C56.8079 175.975 56.642 175.879 56.46 175.83L54.19 175.26C54.1381 175.245 54.0925 175.213 54.06 175.17C54.0276 175.127 54.01 175.074 54.01 175.02C54.01 174.966 54.0276 174.913 54.06 174.87C54.0925 174.827 54.1381 174.795 54.19 174.78L56.46 174.21C56.642 174.161 56.8079 174.065 56.9413 173.931C57.0746 173.798 57.1707 173.632 57.22 173.45L57.79 171.18C57.8052 171.128 57.8367 171.082 57.88 171.05C57.9233 171.018 57.9759 171 58.03 171C58.0841 171 58.1367 171.018 58.18 171.05C58.2233 171.082 58.2549 171.128 58.27 171.18L58.84 173.45C58.8893 173.632 58.9854 173.798 59.1188 173.931C59.2521 174.065 59.418 174.161 59.6 174.21L61.87 174.78C61.9219 174.795 61.9676 174.827 62 174.87C62.0325 174.913 62.05 174.966 62.05 175.02C62.05 175.074 62.0325 175.127 62 175.17C61.9676 175.213 61.9219 175.245 61.87 175.26L59.6 175.83C59.418 175.879 59.2521 175.975 59.1188 176.109C58.9854 176.242 58.8893 176.408 58.84 176.59L58.27 178.86C58.2549 178.912 58.2233 178.958 58.18 178.99C58.1367 179.022 58.0841 179.04 58.03 179.04C57.9759 179.04 57.9233 179.022 57.88 178.99C57.8367 178.958 57.8052 178.912 57.79 178.86Z" fill="#7B7C8E"/>
</g>
</g>
<mask id="mask10_325_1275" style="mask-type:luminance" maskUnits="userSpaceOnUse" x="13" y="140" width="9" height="10">
<path d="M13.01 140.99H21.06V149.04H13.01V140.99Z" fill="white"/>
</mask>
<g mask="url(#mask10_325_1275)">
<mask id="mask11_325_1275" style="mask-type:luminance" maskUnits="userSpaceOnUse" x="13" y="140" width="9" height="10">
<path d="M13.01 140.99H21.06V149.04H13.01V140.99Z" fill="white"/>
</mask>
<g mask="url(#mask11_325_1275)">
<path d="M16.79 148.86L16.22 146.59C16.1707 146.408 16.0746 146.242 15.9413 146.109C15.8079 145.975 15.642 145.879 15.46 145.83L13.19 145.26C13.1381 145.245 13.0925 145.213 13.06 145.17C13.0276 145.127 13.01 145.074 13.01 145.02C13.01 144.966 13.0276 144.913 13.06 144.87C13.0925 144.827 13.1381 144.795 13.19 144.78L15.46 144.21C15.642 144.161 15.8079 144.065 15.9413 143.931C16.0746 143.798 16.1707 143.632 16.22 143.45L16.79 141.18C16.8052 141.128 16.8367 141.082 16.88 141.05C16.9233 141.018 16.9759 141 17.03 141C17.0841 141 17.1367 141.018 17.18 141.05C17.2233 141.082 17.2549 141.128 17.27 141.18L17.84 143.45C17.8893 143.632 17.9854 143.798 18.1188 143.931C18.2521 144.065 18.418 144.161 18.6 144.21L20.87 144.78C20.9219 144.795 20.9676 144.827 21 144.87C21.0325 144.913 21.05 144.966 21.05 145.02C21.05 145.074 21.0325 145.127 21 145.17C20.9676 145.213 20.9219 145.245 20.87 145.26L18.6 145.83C18.418 145.879 18.2521 145.975 18.1188 146.109C17.9854 146.242 17.8893 146.408 17.84 146.59L17.27 148.86C17.2549 148.912 17.2233 148.958 17.18 148.99C17.1367 149.022 17.0841 149.04 17.03 149.04C16.9759 149.04 16.9233 149.022 16.88 148.99C16.8367 148.958 16.8052 148.912 16.79 148.86Z" fill="#7B7C8E"/>
</g>
</g>
<mask id="mask12_325_1275" style="mask-type:luminance" maskUnits="userSpaceOnUse" x="36" y="96" width="9" height="10">
<path d="M36.01 96.99H44.06V105.04H36.01V96.99Z" fill="white"/>
</mask>
<g mask="url(#mask12_325_1275)">
<mask id="mask13_325_1275" style="mask-type:luminance" maskUnits="userSpaceOnUse" x="36" y="96" width="9" height="10">
<path d="M36.01 96.99H44.06V105.04H36.01V96.99Z" fill="white"/>
</mask>
<g mask="url(#mask13_325_1275)">
<path d="M39.79 104.86L39.22 102.59C39.1707 102.408 39.0746 102.242 38.9413 102.109C38.8079 101.975 38.642 101.879 38.46 101.83L36.19 101.26C36.1381 101.245 36.0925 101.213 36.06 101.17C36.0276 101.127 36.01 101.074 36.01 101.02C36.01 100.966 36.0276 100.913 36.06 100.87C36.0925 100.827 36.1381 100.795 36.19 100.78L38.46 100.21C38.642 100.161 38.8079 100.065 38.9413 99.9313C39.0746 99.7979 39.1707 99.632 39.22 99.45L39.79 97.18C39.8052 97.1281 39.8367 97.0825 39.88 97.05C39.9233 97.0175 39.9759 97 40.03 97C40.0841 97 40.1367 97.0175 40.18 97.05C40.2233 97.0825 40.2549 97.1281 40.27 97.18L40.84 99.45C40.8893 99.632 40.9854 99.7979 41.1188 99.9313C41.2521 100.065 41.418 100.161 41.6 100.21L43.87 100.78C43.9219 100.795 43.9676 100.827 44 100.87C44.0325 100.913 44.05 100.966 44.05 101.02C44.05 101.074 44.0325 101.127 44 101.17C43.9676 101.213 43.9219 101.245 43.87 101.26L41.6 101.83C41.418 101.879 41.2521 101.975 41.1188 102.109C40.9854 102.242 40.8893 102.408 40.84 102.59L40.27 104.86C40.2549 104.912 40.2233 104.958 40.18 104.99C40.1367 105.022 40.0841 105.04 40.03 105.04C39.9759 105.04 39.9233 105.022 39.88 104.99C39.8367 104.958 39.8052 104.912 39.79 104.86Z" fill="#7B7C8E"/>
</g>
</g>
<mask id="mask14_325_1275" style="mask-type:luminance" maskUnits="userSpaceOnUse" x="192" y="182" width="9" height="10">
<path d="M192.01 182.99H200.06V191.04H192.01V182.99Z" fill="white"/>
</mask>
<g mask="url(#mask14_325_1275)">
<mask id="mask15_325_1275" style="mask-type:luminance" maskUnits="userSpaceOnUse" x="192" y="182" width="9" height="10">
<path d="M192.01 182.99H200.06V191.04H192.01V182.99Z" fill="white"/>
</mask>
<g mask="url(#mask15_325_1275)">
<path d="M195.79 190.86L195.22 188.59C195.171 188.408 195.075 188.242 194.941 188.109C194.808 187.975 194.642 187.879 194.46 187.83L192.19 187.26C192.138 187.245 192.092 187.213 192.06 187.17C192.028 187.127 192.01 187.074 192.01 187.02C192.01 186.966 192.028 186.913 192.06 186.87C192.092 186.827 192.138 186.795 192.19 186.78L194.46 186.21C194.642 186.161 194.808 186.065 194.941 185.931C195.075 185.798 195.171 185.632 195.22 185.45L195.79 183.18C195.805 183.128 195.837 183.082 195.88 183.05C195.923 183.018 195.976 183 196.03 183C196.084 183 196.137 183.018 196.18 183.05C196.223 183.082 196.255 183.128 196.27 183.18L196.84 185.45C196.889 185.632 196.985 185.798 197.119 185.931C197.252 186.065 197.418 186.161 197.6 186.21L199.87 186.78C199.922 186.795 199.968 186.827 200 186.87C200.032 186.913 200.05 186.966 200.05 187.02C200.05 187.074 200.032 187.127 200 187.17C199.968 187.213 199.922 187.245 199.87 187.26L197.6 187.83C197.418 187.879 197.252 187.975 197.119 188.109C196.985 188.242 196.889 188.408 196.84 188.59L196.27 190.86C196.255 190.912 196.223 190.958 196.18 190.99C196.137 191.022 196.084 191.04 196.03 191.04C195.976 191.04 195.923 191.022 195.88 190.99C195.837 190.958 195.805 190.912 195.79 190.86Z" fill="#7B7C8E"/>
</g>
</g>
<mask id="mask16_325_1275" style="mask-type:luminance" maskUnits="userSpaceOnUse" x="155" y="111" width="9" height="10">
<path d="M155.01 111.99H163.06V120.04H155.01V111.99Z" fill="white"/>
</mask>
<g mask="url(#mask16_325_1275)">
<mask id="mask17_325_1275" style="mask-type:luminance" maskUnits="userSpaceOnUse" x="155" y="111" width="9" height="10">
<path d="M155.01 111.99H163.06V120.04H155.01V111.99Z" fill="white"/>
</mask>
<g mask="url(#mask17_325_1275)">
<path d="M158.79 119.86L158.22 117.59C158.171 117.408 158.075 117.242 157.941 117.109C157.808 116.975 157.642 116.879 157.46 116.83L155.19 116.26C155.138 116.245 155.092 116.213 155.06 116.17C155.028 116.127 155.01 116.074 155.01 116.02C155.01 115.966 155.028 115.913 155.06 115.87C155.092 115.827 155.138 115.795 155.19 115.78L157.46 115.21C157.642 115.161 157.808 115.065 157.941 114.931C158.075 114.798 158.171 114.632 158.22 114.45L158.79 112.18C158.805 112.128 158.837 112.082 158.88 112.05C158.923 112.018 158.976 112 159.03 112C159.084 112 159.137 112.018 159.18 112.05C159.223 112.082 159.255 112.128 159.27 112.18L159.84 114.45C159.889 114.632 159.985 114.798 160.119 114.931C160.252 115.065 160.418 115.161 160.6 115.21L162.87 115.78C162.922 115.795 162.968 115.827 163 115.87C163.032 115.913 163.05 115.966 163.05 116.02C163.05 116.074 163.032 116.127 163 116.17C162.968 116.213 162.922 116.245 162.87 116.26L160.6 116.83C160.418 116.879 160.252 116.975 160.119 117.109C159.985 117.242 159.889 117.408 159.84 117.59L159.27 119.86C159.255 119.912 159.223 119.958 159.18 119.99C159.137 120.022 159.084 120.04 159.03 120.04C158.976 120.04 158.923 120.022 158.88 119.99C158.837 119.958 158.805 119.912 158.79 119.86Z" fill="#7B7C8E"/>
</g>
</g>
<mask id="mask18_325_1275" style="mask-type:luminance" maskUnits="userSpaceOnUse" x="107" y="26" width="9" height="9">
<path d="M107.07 26.04H115.12V34.09H107.07V26.04Z" fill="white"/>
</mask>
<g mask="url(#mask18_325_1275)">
<mask id="mask19_325_1275" style="mask-type:luminance" maskUnits="userSpaceOnUse" x="107" y="26" width="9" height="9">
<path d="M107.07 26.04H115.12V34.09H107.07V26.04Z" fill="white"/>
</mask>
<g mask="url(#mask19_325_1275)">
<path d="M110.86 33.9001L110.28 31.6301C110.237 31.446 110.143 31.2779 110.008 31.1451C109.874 31.0124 109.705 30.9205 109.52 30.8801L107.25 30.3001C107.196 30.2889 107.147 30.2594 107.113 30.2166C107.078 30.1738 107.059 30.1203 107.059 30.0651C107.059 30.0099 107.078 29.9564 107.113 29.9136C107.147 29.8708 107.196 29.8413 107.25 29.8301L109.52 29.2501C109.703 29.2026 109.87 29.1072 110.003 28.9735C110.137 28.8399 110.233 28.673 110.28 28.4901L110.86 26.2201C110.871 26.166 110.901 26.1175 110.943 26.0827C110.986 26.0478 111.04 26.0288 111.095 26.0288C111.15 26.0288 111.204 26.0478 111.246 26.0827C111.289 26.1175 111.319 26.166 111.33 26.2201L111.91 28.4901C111.951 28.676 112.045 28.8462 112.179 28.9809C112.314 29.1155 112.484 29.2089 112.67 29.2501L114.94 29.8301C114.994 29.8413 115.043 29.8708 115.077 29.9136C115.112 29.9564 115.131 30.0099 115.131 30.0651C115.131 30.1203 115.112 30.1738 115.077 30.2166C115.043 30.2594 114.994 30.2889 114.94 30.3001L112.67 30.8801C112.485 30.9205 112.316 31.0124 112.182 31.1451C112.047 31.2779 111.953 31.446 111.91 31.6301L111.33 33.9001C111.319 33.9541 111.289 34.0026 111.246 34.0375C111.204 34.0723 111.15 34.0913 111.095 34.0913C111.04 34.0913 110.986 34.0723 110.943 34.0375C110.901 34.0026 110.871 33.9541 110.86 33.9001Z" fill="#7B7C8E"/>
</g>
</g>
<mask id="mask20_325_1275" style="mask-type:luminance" maskUnits="userSpaceOnUse" x="95" y="80" width="9" height="10">
<path d="M95.01 80.99H103.06V89.04H95.01V80.99Z" fill="white"/>
</mask>
<g mask="url(#mask20_325_1275)">
<mask id="mask21_325_1275" style="mask-type:luminance" maskUnits="userSpaceOnUse" x="95" y="80" width="9" height="10">
<path d="M95.01 80.99H103.06V89.04H95.01V80.99Z" fill="white"/>
</mask>
<g mask="url(#mask21_325_1275)">
<path d="M98.79 88.86L98.22 86.59C98.1707 86.408 98.0746 86.2421 97.9413 86.1087C97.8079 85.9754 97.642 85.8793 97.46 85.83L95.19 85.26C95.1381 85.2449 95.0925 85.2133 95.06 85.17C95.0275 85.1267 95.01 85.0741 95.01 85.02C95.01 84.9659 95.0275 84.9133 95.06 84.87C95.0925 84.8267 95.1381 84.7951 95.19 84.78L97.46 84.21C97.642 84.1607 97.8079 84.0646 97.9413 83.9313C98.0746 83.7979 98.1707 83.632 98.22 83.45L98.79 81.18C98.8052 81.1281 98.8367 81.0825 98.88 81.05C98.9233 81.0175 98.9759 81 99.03 81C99.0841 81 99.1367 81.0175 99.18 81.05C99.2233 81.0825 99.2549 81.1281 99.27 81.18L99.84 83.45C99.8893 83.632 99.9854 83.7979 100.119 83.9313C100.252 84.0646 100.418 84.1607 100.6 84.21L102.87 84.78C102.922 84.7951 102.968 84.8267 103 84.87C103.032 84.9133 103.05 84.9659 103.05 85.02C103.05 85.0741 103.032 85.1267 103 85.17C102.968 85.2133 102.922 85.2449 102.87 85.26L100.6 85.83C100.418 85.8793 100.252 85.9754 100.119 86.1087C99.9854 86.2421 99.8893 86.408 99.84 86.59L99.27 88.86C99.2549 88.9119 99.2233 88.9575 99.18 88.99C99.1367 89.0225 99.0841 89.04 99.03 89.04C98.9759 89.04 98.9233 89.0225 98.88 88.99C98.8367 88.9575 98.8052 88.9119 98.79 88.86Z" fill="#7B7C8E"/>
</g>
</g>
<mask id="mask22_325_1275" style="mask-type:luminance" maskUnits="userSpaceOnUse" x="163" y="223" width="9" height="10">
<path d="M163.01 223.99H171.06V232.04H163.01V223.99Z" fill="white"/>
</mask>
<g mask="url(#mask22_325_1275)">
<mask id="mask23_325_1275" style="mask-type:luminance" maskUnits="userSpaceOnUse" x="163" y="223" width="9" height="10">
<path d="M163.01 223.99H171.06V232.04H163.01V223.99Z" fill="white"/>
</mask>
<g mask="url(#mask23_325_1275)">
<path d="M166.79 231.86L166.22 229.59C166.171 229.408 166.075 229.242 165.941 229.109C165.808 228.975 165.642 228.879 165.46 228.83L163.19 228.26C163.138 228.245 163.092 228.213 163.06 228.17C163.028 228.127 163.01 228.074 163.01 228.02C163.01 227.966 163.028 227.913 163.06 227.87C163.092 227.827 163.138 227.795 163.19 227.78L165.46 227.21C165.642 227.161 165.808 227.065 165.941 226.931C166.075 226.798 166.171 226.632 166.22 226.45L166.79 224.18C166.805 224.128 166.837 224.082 166.88 224.05C166.923 224.018 166.976 224 167.03 224C167.084 224 167.137 224.018 167.18 224.05C167.223 224.082 167.255 224.128 167.27 224.18L167.84 226.45C167.889 226.632 167.985 226.798 168.119 226.931C168.252 227.065 168.418 227.161 168.6 227.21L170.87 227.78C170.922 227.795 170.968 227.827 171 227.87C171.032 227.913 171.05 227.966 171.05 228.02C171.05 228.074 171.032 228.127 171 228.17C170.968 228.213 170.922 228.245 170.87 228.26L168.6 228.83C168.418 228.879 168.252 228.975 168.119 229.109C167.985 229.242 167.889 229.408 167.84 229.59L167.27 231.86C167.255 231.912 167.223 231.958 167.18 231.99C167.137 232.022 167.084 232.04 167.03 232.04C166.976 232.04 166.923 232.022 166.88 231.99C166.837 231.958 166.805 231.912 166.79 231.86Z" fill="#7B7C8E"/>
</g>
</g>
<mask id="mask24_325_1275" style="mask-type:luminance" maskUnits="userSpaceOnUse" x="83" y="218" width="9" height="10">
<path d="M83.01 218.99H91.06V227.04H83.01V218.99Z" fill="white"/>
</mask>
<g mask="url(#mask24_325_1275)">
<mask id="mask25_325_1275" style="mask-type:luminance" maskUnits="userSpaceOnUse" x="83" y="218" width="9" height="10">
<path d="M83.01 218.99H91.06V227.04H83.01V218.99Z" fill="white"/>
</mask>
<g mask="url(#mask25_325_1275)">
<path d="M86.79 226.86L86.22 224.59C86.1707 224.408 86.0746 224.242 85.9413 224.109C85.8079 223.975 85.642 223.879 85.46 223.83L83.19 223.26C83.1381 223.245 83.0925 223.213 83.06 223.17C83.0275 223.127 83.01 223.074 83.01 223.02C83.01 222.966 83.0275 222.913 83.06 222.87C83.0925 222.827 83.1381 222.795 83.19 222.78L85.46 222.21C85.642 222.161 85.8079 222.065 85.9413 221.931C86.0746 221.798 86.1707 221.632 86.22 221.45L86.79 219.18C86.8052 219.128 86.8367 219.082 86.88 219.05C86.9233 219.018 86.9759 219 87.03 219C87.0841 219 87.1367 219.018 87.18 219.05C87.2233 219.082 87.2549 219.128 87.27 219.18L87.84 221.45C87.8893 221.632 87.9854 221.798 88.1188 221.931C88.2521 222.065 88.418 222.161 88.6 222.21L90.87 222.78C90.9219 222.795 90.9676 222.827 91 222.87C91.0325 222.913 91.05 222.966 91.05 223.02C91.05 223.074 91.0325 223.127 91 223.17C90.9676 223.213 90.9219 223.245 90.87 223.26L88.6 223.83C88.418 223.879 88.2521 223.975 88.1188 224.109C87.9854 224.242 87.8893 224.408 87.84 224.59L87.27 226.86C87.2549 226.912 87.2233 226.958 87.18 226.99C87.1367 227.022 87.0841 227.04 87.03 227.04C86.9759 227.04 86.9233 227.022 86.88 226.99C86.8367 226.958 86.8052 226.912 86.79 226.86Z" fill="#7B7C8E"/>
</g>
</g>
<g opacity="0.3">
<mask id="mask26_325_1275" style="mask-type:luminance" maskUnits="userSpaceOnUse" x="207" y="52" width="4" height="4">
<path d="M207 52H210.99V55.99H207V52Z" fill="white"/>
</mask>
<g mask="url(#mask26_325_1275)">
<mask id="mask27_325_1275" style="mask-type:luminance" maskUnits="userSpaceOnUse" x="207" y="52" width="4" height="4">
<path d="M207 52H210.99V55.99H207V52Z" fill="white"/>
</mask>
<g mask="url(#mask27_325_1275)">
<path d="M208.88 55.9L208.6 54.77C208.575 54.6804 208.526 54.599 208.46 54.5341C208.393 54.4691 208.31 54.4229 208.22 54.4L207.09 54.11C207.065 54.1026 207.044 54.0874 207.028 54.0667C207.013 54.046 207.004 54.0209 207.004 53.995C207.004 53.9692 207.013 53.944 207.028 53.9233C207.044 53.9026 207.065 53.8874 207.09 53.88L208.22 53.59C208.312 53.5673 208.396 53.5199 208.463 53.4529C208.53 53.3859 208.577 53.302 208.6 53.21L208.88 52.09C208.89 52.0663 208.907 52.0461 208.928 52.0318C208.949 52.0176 208.974 52.01 209 52.01C209.026 52.01 209.051 52.0176 209.072 52.0318C209.093 52.0461 209.11 52.0663 209.12 52.09L209.4 53.21C209.423 53.302 209.47 53.3859 209.537 53.4529C209.604 53.5199 209.688 53.5673 209.78 53.59L210.91 53.88C210.935 53.8874 210.956 53.9026 210.972 53.9233C210.987 53.944 210.996 53.9692 210.996 53.995C210.996 54.0209 210.987 54.046 210.972 54.0667C210.956 54.0874 210.935 54.1026 210.91 54.11L209.78 54.4C209.69 54.4229 209.607 54.4691 209.54 54.5341C209.474 54.599 209.425 54.6804 209.4 54.77L209.12 55.9C209.12 55.9318 209.107 55.9624 209.085 55.9849C209.062 56.0074 209.032 56.02 209 56.02C208.968 56.02 208.938 56.0074 208.915 55.9849C208.893 55.9624 208.88 55.9318 208.88 55.9Z" fill="#7B7C8E"/>
</g>
</g>
</g>
<g opacity="0.3">
<mask id="mask28_325_1275" style="mask-type:luminance" maskUnits="userSpaceOnUse" x="217" y="112" width="4" height="4">
<path d="M217 112H220.99V115.99H217V112Z" fill="white"/>
</mask>
<g mask="url(#mask28_325_1275)">
<mask id="mask29_325_1275" style="mask-type:luminance" maskUnits="userSpaceOnUse" x="217" y="112" width="4" height="4">
<path d="M217 112H220.99V115.99H217V112Z" fill="white"/>
</mask>
<g mask="url(#mask29_325_1275)">
<path d="M218.88 115.9L218.6 114.77C218.575 114.68 218.526 114.599 218.46 114.534C218.393 114.469 218.31 114.423 218.22 114.4L217.09 114.11C217.065 114.103 217.044 114.087 217.028 114.067C217.013 114.046 217.004 114.021 217.004 113.995C217.004 113.969 217.013 113.944 217.028 113.923C217.044 113.903 217.065 113.887 217.09 113.88L218.22 113.59C218.312 113.567 218.396 113.52 218.463 113.453C218.53 113.386 218.577 113.302 218.6 113.21L218.88 112.09C218.89 112.066 218.907 112.046 218.928 112.032C218.949 112.018 218.974 112.01 219 112.01C219.026 112.01 219.051 112.018 219.072 112.032C219.093 112.046 219.11 112.066 219.12 112.09L219.4 113.21C219.423 113.302 219.47 113.386 219.537 113.453C219.604 113.52 219.688 113.567 219.78 113.59L220.91 113.88C220.935 113.887 220.956 113.903 220.972 113.923C220.987 113.944 220.996 113.969 220.996 113.995C220.996 114.021 220.987 114.046 220.972 114.067C220.956 114.087 220.935 114.103 220.91 114.11L219.78 114.4C219.69 114.423 219.607 114.469 219.54 114.534C219.474 114.599 219.425 114.68 219.4 114.77L219.12 115.9C219.12 115.932 219.107 115.962 219.085 115.985C219.062 116.007 219.032 116.02 219 116.02C218.968 116.02 218.938 116.007 218.915 115.985C218.893 115.962 218.88 115.932 218.88 115.9Z" fill="#7B7C8E"/>
</g>
</g>
</g>
<g opacity="0.3">
<mask id="mask30_325_1275" style="mask-type:luminance" maskUnits="userSpaceOnUse" x="217" y="172" width="4" height="4">
<path d="M217 172H220.99V175.99H217V172Z" fill="white"/>
</mask>
<g mask="url(#mask30_325_1275)">
<mask id="mask31_325_1275" style="mask-type:luminance" maskUnits="userSpaceOnUse" x="217" y="172" width="4" height="4">
<path d="M217 172H220.99V175.99H217V172Z" fill="white"/>
</mask>
<g mask="url(#mask31_325_1275)">
<path d="M218.88 175.9L218.6 174.77C218.575 174.68 218.526 174.599 218.46 174.534C218.393 174.469 218.31 174.423 218.22 174.4L217.09 174.11C217.065 174.103 217.044 174.087 217.028 174.067C217.013 174.046 217.004 174.021 217.004 173.995C217.004 173.969 217.013 173.944 217.028 173.923C217.044 173.903 217.065 173.887 217.09 173.88L218.22 173.59C218.312 173.567 218.396 173.52 218.463 173.453C218.53 173.386 218.577 173.302 218.6 173.21L218.88 172.09C218.88 172.058 218.893 172.028 218.915 172.005C218.938 171.983 218.968 171.97 219 171.97C219.032 171.97 219.062 171.983 219.085 172.005C219.107 172.028 219.12 172.058 219.12 172.09L219.4 173.21C219.423 173.302 219.47 173.386 219.537 173.453C219.604 173.52 219.688 173.567 219.78 173.59L220.91 173.88C220.935 173.887 220.956 173.903 220.972 173.923C220.987 173.944 220.996 173.969 220.996 173.995C220.996 174.021 220.987 174.046 220.972 174.067C220.956 174.087 220.935 174.103 220.91 174.11L219.78 174.4C219.69 174.423 219.607 174.469 219.54 174.534C219.474 174.599 219.425 174.68 219.4 174.77L219.12 175.9C219.12 175.932 219.107 175.962 219.085 175.985C219.062 176.007 219.032 176.02 219 176.02C218.968 176.02 218.938 176.007 218.915 175.985C218.893 175.962 218.88 175.932 218.88 175.9Z" fill="#7B7C8E"/>
</g>
</g>
</g>
<g opacity="0.3">
<mask id="mask32_325_1275" style="mask-type:luminance" maskUnits="userSpaceOnUse" x="187" y="212" width="4" height="4">
<path d="M187 212H190.99V215.99H187V212Z" fill="white"/>
</mask>
<g mask="url(#mask32_325_1275)">
<mask id="mask33_325_1275" style="mask-type:luminance" maskUnits="userSpaceOnUse" x="187" y="212" width="4" height="4">
<path d="M187 212H190.99V215.99H187V212Z" fill="white"/>
</mask>
<g mask="url(#mask33_325_1275)">
<path d="M188.88 215.9L188.6 214.77C188.575 214.68 188.526 214.599 188.46 214.534C188.393 214.469 188.31 214.423 188.22 214.4L187.09 214.11C187.065 214.103 187.044 214.087 187.028 214.067C187.013 214.046 187.004 214.021 187.004 213.995C187.004 213.969 187.013 213.944 187.028 213.923C187.044 213.903 187.065 213.887 187.09 213.88L188.22 213.59C188.312 213.567 188.396 213.52 188.463 213.453C188.53 213.386 188.577 213.302 188.6 213.21L188.88 212.09C188.88 212.058 188.893 212.028 188.915 212.005C188.938 211.983 188.968 211.97 189 211.97C189.032 211.97 189.062 211.983 189.085 212.005C189.107 212.028 189.12 212.058 189.12 212.09L189.4 213.21C189.423 213.302 189.47 213.386 189.537 213.453C189.604 213.52 189.688 213.567 189.78 213.59L190.91 213.88C190.935 213.887 190.956 213.903 190.972 213.923C190.987 213.944 190.996 213.969 190.996 213.995C190.996 214.021 190.987 214.046 190.972 214.067C190.956 214.087 190.935 214.103 190.91 214.11L189.78 214.4C189.69 214.423 189.607 214.469 189.54 214.534C189.474 214.599 189.425 214.68 189.4 214.77L189.12 215.9C189.12 215.932 189.107 215.962 189.085 215.985C189.062 216.007 189.032 216.02 189 216.02C188.968 216.02 188.938 216.007 188.915 215.985C188.893 215.962 188.88 215.932 188.88 215.9Z" fill="#7B7C8E"/>
</g>
</g>
</g>
<g opacity="0.3">
<mask id="mask34_325_1275" style="mask-type:luminance" maskUnits="userSpaceOnUse" x="117" y="232" width="4" height="4">
<path d="M117 232H120.99V235.99H117V232Z" fill="white"/>
</mask>
<g mask="url(#mask34_325_1275)">
<mask id="mask35_325_1275" style="mask-type:luminance" maskUnits="userSpaceOnUse" x="117" y="232" width="4" height="4">
<path d="M117 232H120.99V235.99H117V232Z" fill="white"/>
</mask>
<g mask="url(#mask35_325_1275)">
<path d="M118.88 235.9L118.6 234.77C118.575 234.68 118.526 234.599 118.46 234.534C118.393 234.469 118.31 234.423 118.22 234.4L117.09 234.11C117.065 234.103 117.044 234.087 117.028 234.067C117.013 234.046 117.004 234.021 117.004 233.995C117.004 233.969 117.013 233.944 117.028 233.923C117.044 233.903 117.065 233.887 117.09 233.88L118.22 233.59C118.312 233.567 118.396 233.52 118.463 233.453C118.53 233.386 118.577 233.302 118.6 233.21L118.88 232.09C118.88 232.058 118.893 232.028 118.915 232.005C118.938 231.983 118.968 231.97 119 231.97C119.032 231.97 119.062 231.983 119.085 232.005C119.107 232.028 119.12 232.058 119.12 232.09L119.4 233.21C119.423 233.302 119.47 233.386 119.537 233.453C119.604 233.52 119.688 233.567 119.78 233.59L120.91 233.88C120.935 233.887 120.956 233.903 120.972 233.923C120.987 233.944 120.996 233.969 120.996 233.995C120.996 234.021 120.987 234.046 120.972 234.067C120.956 234.087 120.935 234.103 120.91 234.11L119.78 234.4C119.69 234.423 119.607 234.469 119.54 234.534C119.474 234.599 119.425 234.68 119.4 234.77L119.12 235.9C119.12 235.932 119.107 235.962 119.085 235.985C119.062 236.007 119.032 236.02 119 236.02C118.968 236.02 118.938 236.007 118.915 235.985C118.893 235.962 118.88 235.932 118.88 235.9Z" fill="#7B7C8E"/>
</g>
</g>
</g>
<g opacity="0.3">
<mask id="mask36_325_1275" style="mask-type:luminance" maskUnits="userSpaceOnUse" x="57" y="202" width="4" height="4">
<path d="M57 202H60.99V205.99H57V202Z" fill="white"/>
</mask>
<g mask="url(#mask36_325_1275)">
<mask id="mask37_325_1275" style="mask-type:luminance" maskUnits="userSpaceOnUse" x="57" y="202" width="4" height="4">
<path d="M57 202H60.99V205.99H57V202Z" fill="white"/>
</mask>
<g mask="url(#mask37_325_1275)">
<path d="M58.88 205.9L58.6 204.77C58.5747 204.68 58.5263 204.599 58.4596 204.534C58.3929 204.469 58.3103 204.423 58.22 204.4L57.09 204.11C57.0652 204.103 57.0435 204.087 57.0281 204.067C57.0126 204.046 57.0043 204.021 57.0043 203.995C57.0043 203.969 57.0126 203.944 57.0281 203.923C57.0435 203.903 57.0652 203.887 57.09 203.88L58.22 203.59C58.3119 203.567 58.3959 203.52 58.4629 203.453C58.5299 203.386 58.5773 203.302 58.6 203.21L58.88 202.09C58.88 202.058 58.8926 202.028 58.9151 202.005C58.9376 201.983 58.9682 201.97 59 201.97C59.0318 201.97 59.0623 201.983 59.0848 202.005C59.1074 202.028 59.12 202.058 59.12 202.09L59.4 203.21C59.4227 203.302 59.4701 203.386 59.5371 203.453C59.6041 203.52 59.6881 203.567 59.78 203.59L60.91 203.88C60.9348 203.887 60.9565 203.903 60.9719 203.923C60.9874 203.944 60.9957 203.969 60.9957 203.995C60.9957 204.021 60.9874 204.046 60.9719 204.067C60.9565 204.087 60.9348 204.103 60.91 204.11L59.78 204.4C59.6897 204.423 59.6071 204.469 59.5404 204.534C59.4737 204.599 59.4253 204.68 59.4 204.77L59.12 205.9C59.1101 205.924 59.0935 205.944 59.0721 205.958C59.0507 205.972 59.0257 205.98 59 205.98C58.9743 205.98 58.9492 205.972 58.9279 205.958C58.9065 205.944 58.8899 205.924 58.88 205.9Z" fill="#7B7C8E"/>
</g>
</g>
</g>
<g opacity="0.3">
<mask id="mask38_325_1275" style="mask-type:luminance" maskUnits="userSpaceOnUse" x="17" y="162" width="4" height="4">
<path d="M17 162H20.99V165.99H17V162Z" fill="white"/>
</mask>
<g mask="url(#mask38_325_1275)">
<mask id="mask39_325_1275" style="mask-type:luminance" maskUnits="userSpaceOnUse" x="17" y="162" width="4" height="4">
<path d="M17 162H20.99V165.99H17V162Z" fill="white"/>
</mask>
<g mask="url(#mask39_325_1275)">
<path d="M18.88 165.9L18.6 164.77C18.5747 164.68 18.5263 164.599 18.4596 164.534C18.3929 164.469 18.3103 164.423 18.22 164.4L17.09 164.11C17.0652 164.103 17.0435 164.087 17.0281 164.067C17.0126 164.046 17.0043 164.021 17.0043 163.995C17.0043 163.969 17.0126 163.944 17.0281 163.923C17.0435 163.903 17.0652 163.887 17.09 163.88L18.22 163.59C18.3119 163.567 18.3959 163.52 18.4629 163.453C18.5299 163.386 18.5773 163.302 18.6 163.21L18.88 162.09C18.8899 162.066 18.9065 162.046 18.9279 162.032C18.9492 162.018 18.9743 162.01 19 162.01C19.0257 162.01 19.0508 162.018 19.0721 162.032C19.0935 162.046 19.1101 162.066 19.12 162.09L19.4 163.21C19.4227 163.302 19.4701 163.386 19.5371 163.453C19.6041 163.52 19.6881 163.567 19.78 163.59L20.91 163.88C20.9348 163.887 20.9565 163.903 20.9719 163.923C20.9874 163.944 20.9957 163.969 20.9957 163.995C20.9957 164.021 20.9874 164.046 20.9719 164.067C20.9565 164.087 20.9348 164.103 20.91 164.11L19.78 164.4C19.6897 164.423 19.6071 164.469 19.5404 164.534C19.4737 164.599 19.4253 164.68 19.4 164.77L19.12 165.9C19.12 165.932 19.1074 165.962 19.0848 165.985C19.0623 166.007 19.0318 166.02 19 166.02C18.9682 166.02 18.9376 166.007 18.9151 165.985C18.8926 165.962 18.88 165.932 18.88 165.9Z" fill="#7B7C8E"/>
</g>
</g>
</g>
<g opacity="0.3">
<mask id="mask40_325_1275" style="mask-type:luminance" maskUnits="userSpaceOnUse" x="27" y="82" width="4" height="4">
<path d="M27 82H30.99V85.99H27V82Z" fill="white"/>
</mask>
<g mask="url(#mask40_325_1275)">
<mask id="mask41_325_1275" style="mask-type:luminance" maskUnits="userSpaceOnUse" x="27" y="82" width="4" height="4">
<path d="M27 82H30.99V85.99H27V82Z" fill="white"/>
</mask>
<g mask="url(#mask41_325_1275)">
<path d="M28.88 85.9L28.6 84.77C28.5747 84.6803 28.5263 84.599 28.4596 84.534C28.3929 84.4691 28.3103 84.4228 28.22 84.4L27.09 84.11C27.0652 84.1026 27.0435 84.0874 27.0281 84.0667C27.0126 84.046 27.0043 84.0208 27.0043 83.995C27.0043 83.9691 27.0126 83.944 27.0281 83.9233C27.0435 83.9025 27.0652 83.8873 27.09 83.88L28.22 83.59C28.3119 83.5672 28.3959 83.5198 28.4629 83.4529C28.5299 83.3859 28.5773 83.3019 28.6 83.21L28.88 82.09C28.88 82.0581 28.8926 82.0276 28.9151 82.0051C28.9376 81.9826 28.9682 81.97 29 81.97C29.0318 81.97 29.0623 81.9826 29.0848 82.0051C29.1074 82.0276 29.12 82.0581 29.12 82.09L29.4 83.21C29.4227 83.3019 29.4701 83.3859 29.5371 83.4529C29.6041 83.5198 29.6881 83.5672 29.78 83.59L30.91 83.88C30.9348 83.8873 30.9565 83.9025 30.9719 83.9233C30.9874 83.944 30.9957 83.9691 30.9957 83.995C30.9957 84.0208 30.9874 84.046 30.9719 84.0667C30.9565 84.0874 30.9348 84.1026 30.91 84.11L29.78 84.4C29.6897 84.4228 29.6071 84.4691 29.5404 84.534C29.4737 84.599 29.4253 84.6803 29.4 84.77L29.12 85.9C29.12 85.9318 29.1074 85.9623 29.0848 85.9848C29.0623 86.0073 29.0318 86.02 29 86.02C28.9682 86.02 28.9376 86.0073 28.9151 85.9848C28.8926 85.9623 28.88 85.9318 28.88 85.9Z" fill="#7B7C8E"/>
</g>
</g>
</g>
<g opacity="0.3">
<mask id="mask42_325_1275" style="mask-type:luminance" maskUnits="userSpaceOnUse" x="67" y="52" width="4" height="4">
<path d="M67 52H70.99V55.99H67V52Z" fill="white"/>
</mask>
<g mask="url(#mask42_325_1275)">
<mask id="mask43_325_1275" style="mask-type:luminance" maskUnits="userSpaceOnUse" x="67" y="52" width="4" height="4">
<path d="M67 52H70.99V55.99H67V52Z" fill="white"/>
</mask>
<g mask="url(#mask43_325_1275)">
<path d="M68.88 55.9L68.6 54.77C68.5747 54.6804 68.5263 54.599 68.4596 54.534C68.3929 54.4691 68.3103 54.4228 68.22 54.4L67.09 54.11C67.0652 54.1026 67.0435 54.0874 67.0281 54.0667C67.0126 54.046 67.0043 54.0208 67.0043 53.995C67.0043 53.9691 67.0126 53.944 67.0281 53.9233C67.0435 53.9025 67.0652 53.8874 67.09 53.88L68.22 53.59C68.3119 53.5672 68.3959 53.5198 68.4629 53.4529C68.5299 53.3859 68.5773 53.3019 68.6 53.21L68.88 52.09C68.88 52.0581 68.8926 52.0276 68.9151 52.0051C68.9376 51.9826 68.9682 51.97 69 51.97C69.0318 51.97 69.0623 51.9826 69.0848 52.0051C69.1074 52.0276 69.12 52.0581 69.12 52.09L69.4 53.21C69.4227 53.3019 69.4701 53.3859 69.5371 53.4529C69.6041 53.5198 69.6881 53.5672 69.78 53.59L70.91 53.88C70.9348 53.8874 70.9565 53.9025 70.9719 53.9233C70.9874 53.944 70.9957 53.9691 70.9957 53.995C70.9957 54.0208 70.9874 54.046 70.9719 54.0667C70.9565 54.0874 70.9348 54.1026 70.91 54.11L69.78 54.4C69.6897 54.4228 69.6071 54.4691 69.5404 54.534C69.4737 54.599 69.4253 54.6804 69.4 54.77L69.12 55.9C69.12 55.9318 69.1074 55.9623 69.0848 55.9848C69.0623 56.0073 69.0318 56.02 69 56.02C68.9682 56.02 68.9376 56.0073 68.9151 55.9848C68.8926 55.9623 68.88 55.9318 68.88 55.9Z" fill="#7B7C8E"/>
</g>
</g>
</g>
<g opacity="0.3">
<mask id="mask44_325_1275" style="mask-type:luminance" maskUnits="userSpaceOnUse" x="107" y="12" width="4" height="4">
<path d="M107 12H110.99V15.99H107V12Z" fill="white"/>
</mask>
<g mask="url(#mask44_325_1275)">
<mask id="mask45_325_1275" style="mask-type:luminance" maskUnits="userSpaceOnUse" x="107" y="12" width="4" height="4">
<path d="M107 12H110.99V15.99H107V12Z" fill="white"/>
</mask>
<g mask="url(#mask45_325_1275)">
<path d="M108.88 15.9L108.6 14.77C108.575 14.6804 108.526 14.599 108.46 14.534C108.393 14.4691 108.31 14.4228 108.22 14.4L107.09 14.11C107.065 14.1026 107.044 14.0874 107.028 14.0667C107.013 14.046 107.004 14.0208 107.004 13.995C107.004 13.9691 107.013 13.944 107.028 13.9233C107.044 13.9025 107.065 13.8874 107.09 13.88L108.22 13.59C108.312 13.5672 108.396 13.5198 108.463 13.4529C108.53 13.3859 108.577 13.3019 108.6 13.21L108.88 12.09C108.88 12.0581 108.893 12.0276 108.915 12.0051C108.938 11.9826 108.968 11.97 109 11.97C109.032 11.97 109.062 11.9826 109.085 12.0051C109.107 12.0276 109.12 12.0581 109.12 12.09L109.4 13.21C109.423 13.3019 109.47 13.3859 109.537 13.4529C109.604 13.5198 109.688 13.5672 109.78 13.59L110.91 13.88C110.935 13.8874 110.956 13.9025 110.972 13.9233C110.987 13.944 110.996 13.9691 110.996 13.995C110.996 14.0208 110.987 14.046 110.972 14.0667C110.956 14.0874 110.935 14.1026 110.91 14.11L109.78 14.4C109.69 14.4228 109.607 14.4691 109.54 14.534C109.474 14.599 109.425 14.6804 109.4 14.77L109.12 15.9C109.11 15.9237 109.093 15.9439 109.072 15.9581C109.051 15.9724 109.026 15.98 109 15.98C108.974 15.98 108.949 15.9724 108.928 15.9581C108.907 15.9439 108.89 15.9237 108.88 15.9Z" fill="#7B7C8E"/>
</g>
</g>
</g>
<g opacity="0.3">
<mask id="mask46_325_1275" style="mask-type:luminance" maskUnits="userSpaceOnUse" x="157" y="52" width="4" height="4">
<path d="M157 52H160.99V55.99H157V52Z" fill="white"/>
</mask>
<g mask="url(#mask46_325_1275)">
<mask id="mask47_325_1275" style="mask-type:luminance" maskUnits="userSpaceOnUse" x="157" y="52" width="4" height="4">
<path d="M157 52H160.99V55.99H157V52Z" fill="white"/>
</mask>
<g mask="url(#mask47_325_1275)">
<path d="M158.88 55.9L158.6 54.77C158.575 54.6804 158.526 54.599 158.46 54.5341C158.393 54.4691 158.31 54.4229 158.22 54.4L157.09 54.11C157.065 54.1026 157.044 54.0874 157.028 54.0667C157.013 54.046 157.004 54.0209 157.004 53.995C157.004 53.9692 157.013 53.944 157.028 53.9233C157.044 53.9026 157.065 53.8874 157.09 53.88L158.22 53.59C158.312 53.5673 158.396 53.5199 158.463 53.4529C158.53 53.3859 158.577 53.302 158.6 53.21L158.88 52.09C158.89 52.0663 158.907 52.0461 158.928 52.0318C158.949 52.0176 158.974 52.01 159 52.01C159.026 52.01 159.051 52.0176 159.072 52.0318C159.093 52.0461 159.11 52.0663 159.12 52.09L159.4 53.21C159.423 53.302 159.47 53.3859 159.537 53.4529C159.604 53.5199 159.688 53.5673 159.78 53.59L160.91 53.88C160.935 53.8874 160.956 53.9026 160.972 53.9233C160.987 53.944 160.996 53.9692 160.996 53.995C160.996 54.0209 160.987 54.046 160.972 54.0667C160.956 54.0874 160.935 54.1026 160.91 54.11L159.78 54.4C159.69 54.4229 159.607 54.4691 159.54 54.5341C159.474 54.599 159.425 54.6804 159.4 54.77L159.12 55.9C159.12 55.9318 159.107 55.9624 159.085 55.9849C159.062 56.0074 159.032 56.02 159 56.02C158.968 56.02 158.938 56.0074 158.915 55.9849C158.893 55.9624 158.88 55.9318 158.88 55.9Z" fill="#7B7C8E"/>
</g>
</g>
</g>
<g opacity="0.3">
<mask id="mask48_325_1275" style="mask-type:luminance" maskUnits="userSpaceOnUse" x="117" y="102" width="4" height="4">
<path d="M117 102H120.99V105.99H117V102Z" fill="white"/>
</mask>
<g mask="url(#mask48_325_1275)">
<mask id="mask49_325_1275" style="mask-type:luminance" maskUnits="userSpaceOnUse" x="117" y="102" width="4" height="4">
<path d="M117 102H120.99V105.99H117V102Z" fill="white"/>
</mask>
<g mask="url(#mask49_325_1275)">
<path d="M118.88 105.9L118.6 104.77C118.575 104.68 118.526 104.599 118.46 104.534C118.393 104.469 118.31 104.423 118.22 104.4L117.09 104.11C117.065 104.103 117.044 104.087 117.028 104.067C117.013 104.046 117.004 104.021 117.004 103.995C117.004 103.969 117.013 103.944 117.028 103.923C117.044 103.903 117.065 103.887 117.09 103.88L118.22 103.59C118.312 103.567 118.396 103.52 118.463 103.453C118.53 103.386 118.577 103.302 118.6 103.21L118.88 102.09C118.89 102.066 118.907 102.046 118.928 102.032C118.949 102.018 118.974 102.01 119 102.01C119.026 102.01 119.051 102.018 119.072 102.032C119.093 102.046 119.11 102.066 119.12 102.09L119.4 103.21C119.423 103.302 119.47 103.386 119.537 103.453C119.604 103.52 119.688 103.567 119.78 103.59L120.91 103.88C120.935 103.887 120.956 103.903 120.972 103.923C120.987 103.944 120.996 103.969 120.996 103.995C120.996 104.021 120.987 104.046 120.972 104.067C120.956 104.087 120.935 104.103 120.91 104.11L119.78 104.4C119.69 104.423 119.607 104.469 119.54 104.534C119.474 104.599 119.425 104.68 119.4 104.77L119.12 105.9C119.12 105.932 119.107 105.962 119.085 105.985C119.062 106.007 119.032 106.02 119 106.02C118.968 106.02 118.938 106.007 118.915 105.985C118.893 105.962 118.88 105.932 118.88 105.9Z" fill="#7B7C8E"/>
</g>
</g>
</g>
<path d="M112 200C107.926 198.643 104.213 196.38 101.14 193.38C98.1922 190.416 96.0124 186.777 94.79 182.78L97 180.62C97 180.62 102.17 181.55 107.82 187.2C113.47 192.85 114.21 197.84 114.21 197.84L112 200ZM137.89 173.11C133.927 172.068 130.298 170.026 127.35 167.18C124.557 164.334 122.593 160.78 121.67 156.9L123.98 154.59C123.98 154.59 129.16 155.16 134.48 160.48C139.8 165.8 140.19 170.81 140.19 170.81L137.89 173.11Z" fill="#A7A9BC"/>
<path d="M114 196.3C112.395 192.843 110.198 189.692 107.51 186.99C104.904 184.359 101.827 182.239 98.4399 180.74L117.54 161.65C117.54 161.65 122.41 162.29 127.54 167.39C132.67 172.49 133.11 177.21 133.11 177.21L114 196.3ZM140.91 169.43C139.305 165.973 137.108 162.822 134.42 160.12C131.814 157.489 128.737 155.369 125.35 153.87L136.67 142.56C136.67 142.56 141.54 143.19 146.67 148.3C151.8 153.41 152.24 158.12 152.24 158.12L140.91 169.43Z" fill="#F1F2F5"/>
<path d="M154.348 168.727L174.147 188.526L144.448 218.224L124.649 198.425L154.348 168.727ZM96.3601 170.135L76.5601 150.337L106.259 120.638L126.058 140.437L96.3601 170.135Z" fill="#CDCED9"/>
<path d="M154.34 165.9L150.81 169.43L148 166.6L154.16 160.44C153.803 155.674 151.794 151.183 148.48 147.74L151.61 144.61C152.646 145.289 153.898 145.56 155.122 145.369C156.346 145.178 157.456 144.54 158.236 143.577C159.016 142.615 159.411 141.397 159.344 140.159C159.278 138.922 158.754 137.754 157.875 136.881C156.996 136.008 155.823 135.492 154.586 135.434C153.348 135.376 152.133 135.78 151.176 136.567C150.219 137.354 149.588 138.468 149.406 139.694C149.224 140.919 149.503 142.169 150.19 143.2L147.07 146.32C143.624 143.01 139.134 141.002 134.37 140.64L128.2 146.8L125.35 144L128.89 140.47L106.26 117.84L73.73 150.34L96.36 173L99.9 169.46L102.73 172.29L92.83 182.19C92.83 182.19 93.48 187.79 99.39 194.01L98.39 195.01C97.3538 194.331 96.1023 194.06 94.8781 194.251C93.6539 194.442 92.5441 195.08 91.7639 196.043C90.9837 197.005 90.5887 198.223 90.6555 199.461C90.7222 200.698 91.246 201.866 92.1252 202.739C93.0044 203.612 94.1765 204.128 95.4141 204.186C96.6518 204.244 97.8669 203.84 98.8239 203.053C99.781 202.266 100.412 201.152 100.594 199.926C100.776 198.701 100.497 197.451 99.81 196.42L100.81 195.42C106.99 201.19 112.64 201.99 112.64 201.99L122.54 192.09L125.36 194.92L121.83 198.45L144.46 221.08L177 188.52L154.34 165.9ZM81.51 153.9L78 150.34L81.53 146.8L85.07 150.34L81.51 153.9ZM86.46 148.9L82.93 145.37L86.46 141.83L90 145.39L86.46 148.9ZM91.46 143.95L87.93 140.42L91.46 136.88L95 140.44L91.46 143.95ZM96.46 139L92.93 135.47L96.36 132L99.9 135.54L96.46 139ZM101.46 134.06L97.93 130.52L101.46 126.98L105 130.52L101.46 134.06ZM106.46 129.06L102.93 125.52L106.46 121.98L110 125.52L106.46 129.06ZM86.66 158.75L83.13 155.22L86.66 151.68L90 155.29L86.66 158.75ZM91.66 153.8L88.13 150.27L91.66 146.73L95 150.34L91.66 153.8ZM96.66 148.8L93.13 145.27L96.66 141.73L100.2 145.27L96.66 148.8ZM101.66 143.85L98.13 140.32L101.66 136.78L105.2 140.32L101.66 143.85ZM106.66 138.9L103.13 135.37L106.66 131.83L110.2 135.37L106.66 138.9ZM111.61 133.96L108.08 130.42L111.61 126.88L115.15 130.42L111.61 133.96ZM91.81 163.65L88.28 160.12L91.81 156.58L95 160.24L91.81 163.65ZM96.81 158.65L93.28 155.12L96.81 151.58L100.35 155.12L96.81 158.65ZM101.81 153.7L98.28 150.17L101.81 146.63L105.35 150.17L101.81 153.7ZM106.81 148.7L103.28 145.17L106.81 141.63L110.35 145.17L106.81 148.7ZM111.76 143.75L108.23 140.22L111.76 136.68L115.3 140.22L111.76 143.75ZM116.76 138.8L113.23 135.27L116.76 131.73L120.3 135.27L116.76 138.8ZM96.96 168.5L93.43 164.97L96.96 161.43L100.5 164.97L96.96 168.5ZM101.96 163.55L98.43 160.02L101.96 156.48L105.5 160.02L101.96 163.55ZM106.96 158.55L103.43 155.02L106.96 151.48L110.5 155.02L106.96 158.55ZM111.91 153.6L108.38 150.07L111.91 146.53L115.45 150.07L111.91 153.6ZM116.91 148.6L113.38 145.07L116.91 141.53L120.45 145.07L116.91 148.6ZM121.91 143.65L118.38 140.12L121.91 136.58L125.45 140.12L121.91 143.65ZM123.33 152.14L120.33 155.14L116.33 159.14L115.63 159.85L105.73 169.75L102 167.31L123.21 146.1L126.04 148.92L123.33 152.14ZM124.24 155.47C125.364 155.69 126.468 156.004 127.54 156.41L124.84 159.11C124.331 158.151 123.913 157.147 123.59 156.11L124.24 155.47ZM121.24 158.47C121.5 159.11 121.82 159.83 122.24 160.61C121.477 160.299 120.695 160.035 119.9 159.82L121.24 158.47ZM112.49 198.33C109.213 197.195 106.221 195.363 103.72 192.96L104.95 191.73C106.66 193.24 108.31 194.03 108.82 193.52C109.33 193.01 108.3 190.87 106.34 188.92C104.38 186.97 102.34 185.86 101.75 186.44C101.16 187.02 102.02 188.6 103.54 190.31L102.3 191.55C99.8583 189.083 98.0144 186.09 96.91 182.8L97.56 182.15C101.474 182.888 105.072 184.795 107.88 187.62C110.638 190.325 112.49 193.819 113.18 197.62L112.49 198.33ZM115.69 195.13C114.659 191.482 112.698 188.163 110 185.5C106.985 182.727 103.272 180.826 99.26 180L116.58 162.68C120.407 163.351 123.932 165.192 126.67 167.95L126.85 168.14C129.631 170.863 131.483 174.394 132.14 178.23L115.69 195.13ZM126.43 161.76L130.43 157.76C131.307 158.271 132.142 158.85 132.93 159.49L128.32 164.11C127.386 163.486 126.491 162.804 125.64 162.07L126.43 161.76ZM131.15 166.95L135.78 162.31C136.43 163.09 137.018 163.919 137.54 164.79L133.54 168.79C132.45 168.346 131.388 167.835 130.36 167.26L131.15 166.95ZM135.44 175.38C135.222 174.559 134.948 173.754 134.62 172.97C135.337 173.344 136.075 173.678 136.83 173.97L135.44 175.38ZM139.16 171.66C138.127 171.324 137.123 170.902 136.16 170.4L138.9 167.65C139.312 168.725 139.624 169.837 139.83 170.97L139.16 171.66ZM142.35 168.47C141.328 164.817 139.37 161.494 136.67 158.83C133.915 156.055 130.486 154.043 126.72 152.99L136.26 143.45C140.011 144.338 143.414 146.319 146.038 149.142C148.662 151.965 150.389 155.504 151 159.31L142.35 168.47ZM128.26 192.47L125.44 189.64L135.34 179.74L136.04 179.03L140.04 175.03L143.04 172.03L146.58 168.49L149.41 171.32L128.26 192.47ZM129.6 202L126.06 198.46L129.6 194.93L133.13 198.46L129.6 202ZM134.6 197L131 193.47L134.54 189.94L138.07 193.47L134.6 197ZM139.55 192.05L136 188.52L139.5 185L143.03 188.53L139.55 192.05ZM144.5 187.1L140.96 183.56L144.5 180.03L148.03 183.56L144.5 187.1ZM149.5 182.1L145.96 178.56L149.5 175.03L153.03 178.56L149.5 182.1ZM154.44 177.15L150.91 173.61L154.44 170.08L157.98 173.61L154.44 177.15ZM134.65 206.85L131 203.37L134.54 199.84L138.07 203.37L134.65 206.85ZM139.5 202L136 198.42L139.54 194.89L143.07 198.42L139.5 202ZM144.45 197L140.91 193.46L144.45 189.93L147.98 193.46L144.45 197ZM149.45 192.05L145.91 188.51L149.4 185L152.93 188.53L149.45 192.05ZM154.39 187.1L150.86 183.56L154.39 180.03L157.93 183.56L154.39 187.1ZM159.34 182.1L155.81 178.56L159.34 175.03L162.88 178.56L159.34 182.1ZM139.55 211.8L136 208.32L139.54 204.79L143.07 208.32L139.55 211.8ZM144.5 206.8L140.96 203.26L144.5 199.73L148.03 203.26L144.5 206.8ZM149.5 201.85L145.96 198.31L149.5 194.78L153.03 198.31L149.5 201.85ZM154.44 196.85L150.91 193.31L154.44 189.78L157.98 193.31L154.44 196.85ZM159.39 191.9L155.86 188.36L159.39 184.83L162.93 188.36L159.39 191.9ZM164.39 186.95L160.86 183.41L164.39 179.88L167.93 183.41L164.39 186.95ZM144.6 216.65L141.06 213.11L144.6 209.58L148.13 213.11L144.6 216.65ZM149.6 211.7L146.06 208.16L149.6 204.63L153.13 208.16L149.6 211.7ZM154.54 206.7L151.01 203.16L154.54 199.63L158.08 203.16L154.54 206.7ZM159.49 201.75L155.96 198.21L159.49 194.68L163.03 198.21L159.49 201.75ZM164.49 196.75L160.96 193.21L164.49 189.68L168.03 193.21L164.49 196.75ZM169.44 191.8L165.91 188.26L169.44 184.73L172.98 188.26L169.44 191.8Z" fill="#7B7C8E"/>
</g>
<defs>
<clipPath id="clip0_325_1275">
<rect width="250" height="250" fill="white"/>
</clipPath>
</defs>
</svg>
