<svg width="250" height="250" viewBox="0 0 250 250" fill="none" xmlns="http://www.w3.org/2000/svg">
<g clip-path="url(#clip0_325_1277)">
<path d="M125 250C194.036 250 250 194.036 250 125C250 55.9644 194.036 0 125 0C55.9644 0 0 55.9644 0 125C0 194.036 55.9644 250 125 250Z" fill="#E6E6EB"/>
<mask id="mask0_325_1277" style="mask-type:luminance" maskUnits="userSpaceOnUse" x="217" y="71" width="9" height="10">
<path d="M217.01 71.99H225.06V80.04H217.01V71.99Z" fill="white"/>
</mask>
<g mask="url(#mask0_325_1277)">
<mask id="mask1_325_1277" style="mask-type:luminance" maskUnits="userSpaceOnUse" x="217" y="71" width="9" height="10">
<path d="M217.01 71.99H225.06V80.04H217.01V71.99Z" fill="white"/>
</mask>
<g mask="url(#mask1_325_1277)">
<path d="M220.79 79.86L220.22 77.59C220.171 77.408 220.075 77.2421 219.941 77.1087C219.808 76.9754 219.642 76.8793 219.46 76.83L217.19 76.26C217.138 76.2449 217.092 76.2133 217.06 76.17C217.028 76.1267 217.01 76.0741 217.01 76.02C217.01 75.9659 217.028 75.9133 217.06 75.87C217.092 75.8267 217.138 75.7951 217.19 75.78L219.46 75.21C219.642 75.1607 219.808 75.0646 219.941 74.9313C220.075 74.7979 220.171 74.632 220.22 74.45L220.79 72.18C220.805 72.1281 220.837 72.0825 220.88 72.05C220.923 72.0175 220.976 72 221.03 72C221.084 72 221.137 72.0175 221.18 72.05C221.223 72.0825 221.255 72.1281 221.27 72.18L221.84 74.45C221.889 74.632 221.985 74.7979 222.119 74.9313C222.252 75.0646 222.418 75.1607 222.6 75.21L224.87 75.78C224.922 75.7951 224.968 75.8267 225 75.87C225.032 75.9133 225.05 75.9659 225.05 76.02C225.05 76.0741 225.032 76.1267 225 76.17C224.968 76.2133 224.922 76.2449 224.87 76.26L222.6 76.83C222.418 76.8793 222.252 76.9754 222.119 77.1087C221.985 77.2421 221.889 77.408 221.84 77.59L221.27 79.86C221.255 79.9119 221.223 79.9575 221.18 79.99C221.137 80.0225 221.084 80.04 221.03 80.04C220.976 80.04 220.923 80.0225 220.88 79.99C220.837 79.9575 220.805 79.9119 220.79 79.86Z" fill="#7B7C8E"/>
</g>
</g>
<mask id="mask2_325_1277" style="mask-type:luminance" maskUnits="userSpaceOnUse" x="169" y="34" width="9" height="10">
<path d="M169.01 34.99H177.06V43.04H169.01V34.99Z" fill="white"/>
</mask>
<g mask="url(#mask2_325_1277)">
<mask id="mask3_325_1277" style="mask-type:luminance" maskUnits="userSpaceOnUse" x="169" y="34" width="9" height="10">
<path d="M169.01 34.99H177.06V43.04H169.01V34.99Z" fill="white"/>
</mask>
<g mask="url(#mask3_325_1277)">
<path d="M172.79 42.86L172.22 40.59C172.171 40.408 172.075 40.2421 171.941 40.1087C171.808 39.9754 171.642 39.8793 171.46 39.83L169.19 39.26C169.138 39.2449 169.092 39.2133 169.06 39.17C169.028 39.1267 169.01 39.0741 169.01 39.02C169.01 38.9659 169.028 38.9133 169.06 38.87C169.092 38.8267 169.138 38.7951 169.19 38.78L171.46 38.21C171.642 38.1607 171.808 38.0646 171.941 37.9313C172.075 37.7979 172.171 37.632 172.22 37.45L172.79 35.18C172.805 35.1281 172.837 35.0825 172.88 35.05C172.923 35.0175 172.976 35 173.03 35C173.084 35 173.137 35.0175 173.18 35.05C173.223 35.0825 173.255 35.1281 173.27 35.18L173.84 37.45C173.889 37.632 173.985 37.7979 174.119 37.9313C174.252 38.0646 174.418 38.1607 174.6 38.21L176.87 38.78C176.922 38.7951 176.968 38.8267 177 38.87C177.032 38.9133 177.05 38.9659 177.05 39.02C177.05 39.0741 177.032 39.1267 177 39.17C176.968 39.2133 176.922 39.2449 176.87 39.26L174.6 39.83C174.418 39.8793 174.252 39.9754 174.119 40.1087C173.985 40.2421 173.889 40.408 173.84 40.59L173.27 42.86C173.255 42.9119 173.223 42.9575 173.18 42.99C173.137 43.0225 173.084 43.04 173.03 43.04C172.976 43.04 172.923 43.0225 172.88 42.99C172.837 42.9575 172.805 42.9119 172.79 42.86Z" fill="#7B7C8E"/>
</g>
</g>
<mask id="mask4_325_1277" style="mask-type:luminance" maskUnits="userSpaceOnUse" x="53" y="47" width="9" height="10">
<path d="M53.01 47.99H61.06V56.04H53.01V47.99Z" fill="white"/>
</mask>
<g mask="url(#mask4_325_1277)">
<mask id="mask5_325_1277" style="mask-type:luminance" maskUnits="userSpaceOnUse" x="53" y="47" width="9" height="10">
<path d="M53.01 47.99H61.06V56.04H53.01V47.99Z" fill="white"/>
</mask>
<g mask="url(#mask5_325_1277)">
<path d="M56.79 55.86L56.22 53.59C56.1707 53.408 56.0746 53.2421 55.9413 53.1087C55.8079 52.9754 55.642 52.8793 55.46 52.83L53.19 52.26C53.1381 52.2449 53.0925 52.2133 53.06 52.17C53.0276 52.1267 53.01 52.0741 53.01 52.02C53.01 51.9659 53.0276 51.9133 53.06 51.87C53.0925 51.8267 53.1381 51.7951 53.19 51.78L55.46 51.21C55.642 51.1607 55.8079 51.0646 55.9413 50.9313C56.0746 50.7979 56.1707 50.632 56.22 50.45L56.79 48.18C56.8052 48.1281 56.8367 48.0825 56.88 48.05C56.9233 48.0175 56.9759 48 57.03 48C57.0841 48 57.1367 48.0175 57.18 48.05C57.2233 48.0825 57.2549 48.1281 57.27 48.18L57.84 50.45C57.8893 50.632 57.9854 50.7979 58.1188 50.9313C58.2521 51.0646 58.418 51.1607 58.6 51.21L60.87 51.78C60.9219 51.7951 60.9676 51.8267 61 51.87C61.0325 51.9133 61.05 51.9659 61.05 52.02C61.05 52.0741 61.0325 52.1267 61 52.17C60.9676 52.2133 60.9219 52.2449 60.87 52.26L58.6 52.83C58.418 52.8793 58.2521 52.9754 58.1188 53.1087C57.9854 53.2421 57.8893 53.408 57.84 53.59L57.27 55.86C57.2549 55.9119 57.2233 55.9575 57.18 55.99C57.1367 56.0225 57.0841 56.04 57.03 56.04C56.9759 56.04 56.9233 56.0225 56.88 55.99C56.8367 55.9575 56.8052 55.9119 56.79 55.86Z" fill="#7B7C8E"/>
</g>
</g>
<mask id="mask6_325_1277" style="mask-type:luminance" maskUnits="userSpaceOnUse" x="207" y="126" width="9" height="10">
<path d="M207.01 126.99H215.06V135.04H207.01V126.99Z" fill="white"/>
</mask>
<g mask="url(#mask6_325_1277)">
<mask id="mask7_325_1277" style="mask-type:luminance" maskUnits="userSpaceOnUse" x="207" y="126" width="9" height="10">
<path d="M207.01 126.99H215.06V135.04H207.01V126.99Z" fill="white"/>
</mask>
<g mask="url(#mask7_325_1277)">
<path d="M210.79 134.86L210.22 132.59C210.171 132.408 210.075 132.242 209.941 132.109C209.808 131.975 209.642 131.879 209.46 131.83L207.19 131.26C207.138 131.245 207.092 131.213 207.06 131.17C207.028 131.127 207.01 131.074 207.01 131.02C207.01 130.966 207.028 130.913 207.06 130.87C207.092 130.827 207.138 130.795 207.19 130.78L209.46 130.21C209.642 130.161 209.808 130.065 209.941 129.931C210.075 129.798 210.171 129.632 210.22 129.45L210.79 127.18C210.805 127.128 210.837 127.082 210.88 127.05C210.923 127.018 210.976 127 211.03 127C211.084 127 211.137 127.018 211.18 127.05C211.223 127.082 211.255 127.128 211.27 127.18L211.84 129.45C211.889 129.632 211.985 129.798 212.119 129.931C212.252 130.065 212.418 130.161 212.6 130.21L214.87 130.78C214.922 130.795 214.968 130.827 215 130.87C215.032 130.913 215.05 130.966 215.05 131.02C215.05 131.074 215.032 131.127 215 131.17C214.968 131.213 214.922 131.245 214.87 131.26L212.6 131.83C212.418 131.879 212.252 131.975 212.119 132.109C211.985 132.242 211.889 132.408 211.84 132.59L211.27 134.86C211.255 134.912 211.223 134.958 211.18 134.99C211.137 135.022 211.084 135.04 211.03 135.04C210.976 135.04 210.923 135.022 210.88 134.99C210.837 134.958 210.805 134.912 210.79 134.86Z" fill="#7B7C8E"/>
</g>
</g>
<mask id="mask8_325_1277" style="mask-type:luminance" maskUnits="userSpaceOnUse" x="54" y="170" width="9" height="10">
<path d="M54.01 170.99H62.06V179.04H54.01V170.99Z" fill="white"/>
</mask>
<g mask="url(#mask8_325_1277)">
<mask id="mask9_325_1277" style="mask-type:luminance" maskUnits="userSpaceOnUse" x="54" y="170" width="9" height="10">
<path d="M54.01 170.99H62.06V179.04H54.01V170.99Z" fill="white"/>
</mask>
<g mask="url(#mask9_325_1277)">
<path d="M57.79 178.86L57.22 176.59C57.1707 176.408 57.0746 176.242 56.9413 176.109C56.8079 175.975 56.642 175.879 56.46 175.83L54.19 175.26C54.1381 175.245 54.0925 175.213 54.06 175.17C54.0276 175.127 54.01 175.074 54.01 175.02C54.01 174.966 54.0276 174.913 54.06 174.87C54.0925 174.827 54.1381 174.795 54.19 174.78L56.46 174.21C56.642 174.161 56.8079 174.065 56.9413 173.931C57.0746 173.798 57.1707 173.632 57.22 173.45L57.79 171.18C57.8052 171.128 57.8367 171.082 57.88 171.05C57.9233 171.018 57.9759 171 58.03 171C58.0841 171 58.1367 171.018 58.18 171.05C58.2233 171.082 58.2549 171.128 58.27 171.18L58.84 173.45C58.8893 173.632 58.9854 173.798 59.1188 173.931C59.2521 174.065 59.418 174.161 59.6 174.21L61.87 174.78C61.9219 174.795 61.9676 174.827 62 174.87C62.0325 174.913 62.05 174.966 62.05 175.02C62.05 175.074 62.0325 175.127 62 175.17C61.9676 175.213 61.9219 175.245 61.87 175.26L59.6 175.83C59.418 175.879 59.2521 175.975 59.1188 176.109C58.9854 176.242 58.8893 176.408 58.84 176.59L58.27 178.86C58.2549 178.912 58.2233 178.958 58.18 178.99C58.1367 179.022 58.0841 179.04 58.03 179.04C57.9759 179.04 57.9233 179.022 57.88 178.99C57.8367 178.958 57.8052 178.912 57.79 178.86Z" fill="#7B7C8E"/>
</g>
</g>
<mask id="mask10_325_1277" style="mask-type:luminance" maskUnits="userSpaceOnUse" x="43" y="140" width="9" height="10">
<path d="M43.01 140.99H51.06V149.04H43.01V140.99Z" fill="white"/>
</mask>
<g mask="url(#mask10_325_1277)">
<mask id="mask11_325_1277" style="mask-type:luminance" maskUnits="userSpaceOnUse" x="43" y="140" width="9" height="10">
<path d="M43.01 140.99H51.06V149.04H43.01V140.99Z" fill="white"/>
</mask>
<g mask="url(#mask11_325_1277)">
<path d="M46.79 148.86L46.22 146.59C46.1707 146.408 46.0746 146.242 45.9413 146.109C45.8079 145.975 45.642 145.879 45.46 145.83L43.19 145.26C43.1381 145.245 43.0925 145.213 43.06 145.17C43.0276 145.127 43.01 145.074 43.01 145.02C43.01 144.966 43.0276 144.913 43.06 144.87C43.0925 144.827 43.1381 144.795 43.19 144.78L45.46 144.21C45.642 144.161 45.8079 144.065 45.9413 143.931C46.0746 143.798 46.1707 143.632 46.22 143.45L46.79 141.18C46.8052 141.128 46.8367 141.082 46.88 141.05C46.9233 141.018 46.9759 141 47.03 141C47.0841 141 47.1367 141.018 47.18 141.05C47.2233 141.082 47.2549 141.128 47.27 141.18L47.84 143.45C47.8893 143.632 47.9854 143.798 48.1188 143.931C48.2521 144.065 48.418 144.161 48.6 144.21L50.87 144.78C50.9219 144.795 50.9676 144.827 51 144.87C51.0325 144.913 51.05 144.966 51.05 145.02C51.05 145.074 51.0325 145.127 51 145.17C50.9676 145.213 50.9219 145.245 50.87 145.26L48.6 145.83C48.418 145.879 48.2521 145.975 48.1188 146.109C47.9854 146.242 47.8893 146.408 47.84 146.59L47.27 148.86C47.2549 148.912 47.2233 148.958 47.18 148.99C47.1367 149.022 47.0841 149.04 47.03 149.04C46.9759 149.04 46.9233 149.022 46.88 148.99C46.8367 148.958 46.8052 148.912 46.79 148.86Z" fill="#7B7C8E"/>
</g>
</g>
<mask id="mask12_325_1277" style="mask-type:luminance" maskUnits="userSpaceOnUse" x="114" y="130" width="9" height="10">
<path d="M114.01 130.99H122.06V139.04H114.01V130.99Z" fill="white"/>
</mask>
<g mask="url(#mask12_325_1277)">
<mask id="mask13_325_1277" style="mask-type:luminance" maskUnits="userSpaceOnUse" x="114" y="130" width="9" height="10">
<path d="M114.01 130.99H122.06V139.04H114.01V130.99Z" fill="white"/>
</mask>
<g mask="url(#mask13_325_1277)">
<path d="M117.79 138.86L117.22 136.59C117.171 136.408 117.075 136.242 116.941 136.109C116.808 135.975 116.642 135.879 116.46 135.83L114.19 135.26C114.138 135.245 114.092 135.213 114.06 135.17C114.028 135.127 114.01 135.074 114.01 135.02C114.01 134.966 114.028 134.913 114.06 134.87C114.092 134.827 114.138 134.795 114.19 134.78L116.46 134.21C116.642 134.161 116.808 134.065 116.941 133.931C117.075 133.798 117.171 133.632 117.22 133.45L117.79 131.18C117.805 131.128 117.837 131.082 117.88 131.05C117.923 131.018 117.976 131 118.03 131C118.084 131 118.137 131.018 118.18 131.05C118.223 131.082 118.255 131.128 118.27 131.18L118.84 133.45C118.889 133.632 118.985 133.798 119.119 133.931C119.252 134.065 119.418 134.161 119.6 134.21L121.87 134.78C121.922 134.795 121.968 134.827 122 134.87C122.032 134.913 122.05 134.966 122.05 135.02C122.05 135.074 122.032 135.127 122 135.17C121.968 135.213 121.922 135.245 121.87 135.26L119.6 135.83C119.418 135.879 119.252 135.975 119.119 136.109C118.985 136.242 118.889 136.408 118.84 136.59L118.27 138.86C118.255 138.912 118.223 138.958 118.18 138.99C118.137 139.022 118.084 139.04 118.03 139.04C117.976 139.04 117.923 139.022 117.88 138.99C117.837 138.958 117.805 138.912 117.79 138.86Z" fill="#7B7C8E"/>
</g>
</g>
<mask id="mask14_325_1277" style="mask-type:luminance" maskUnits="userSpaceOnUse" x="36" y="96" width="9" height="10">
<path d="M36.01 96.99H44.06V105.04H36.01V96.99Z" fill="white"/>
</mask>
<g mask="url(#mask14_325_1277)">
<mask id="mask15_325_1277" style="mask-type:luminance" maskUnits="userSpaceOnUse" x="36" y="96" width="9" height="10">
<path d="M36.01 96.99H44.06V105.04H36.01V96.99Z" fill="white"/>
</mask>
<g mask="url(#mask15_325_1277)">
<path d="M39.79 104.86L39.22 102.59C39.1707 102.408 39.0746 102.242 38.9413 102.109C38.8079 101.975 38.642 101.879 38.46 101.83L36.19 101.26C36.1381 101.245 36.0925 101.213 36.06 101.17C36.0276 101.127 36.01 101.074 36.01 101.02C36.01 100.966 36.0276 100.913 36.06 100.87C36.0925 100.827 36.1381 100.795 36.19 100.78L38.46 100.21C38.642 100.161 38.8079 100.065 38.9413 99.9313C39.0746 99.7979 39.1707 99.632 39.22 99.45L39.79 97.18C39.8052 97.1281 39.8367 97.0825 39.88 97.05C39.9233 97.0175 39.9759 97 40.03 97C40.0841 97 40.1367 97.0175 40.18 97.05C40.2233 97.0825 40.2549 97.1281 40.27 97.18L40.84 99.45C40.8893 99.632 40.9854 99.7979 41.1188 99.9313C41.2521 100.065 41.418 100.161 41.6 100.21L43.87 100.78C43.9219 100.795 43.9676 100.827 44 100.87C44.0325 100.913 44.05 100.966 44.05 101.02C44.05 101.074 44.0325 101.127 44 101.17C43.9676 101.213 43.9219 101.245 43.87 101.26L41.6 101.83C41.418 101.879 41.2521 101.975 41.1188 102.109C40.9854 102.242 40.8893 102.408 40.84 102.59L40.27 104.86C40.2549 104.912 40.2233 104.958 40.18 104.99C40.1367 105.022 40.0841 105.04 40.03 105.04C39.9759 105.04 39.9233 105.022 39.88 104.99C39.8367 104.958 39.8052 104.912 39.79 104.86Z" fill="#7B7C8E"/>
</g>
</g>
<mask id="mask16_325_1277" style="mask-type:luminance" maskUnits="userSpaceOnUse" x="192" y="182" width="9" height="10">
<path d="M192.01 182.99H200.06V191.04H192.01V182.99Z" fill="white"/>
</mask>
<g mask="url(#mask16_325_1277)">
<mask id="mask17_325_1277" style="mask-type:luminance" maskUnits="userSpaceOnUse" x="192" y="182" width="9" height="10">
<path d="M192.01 182.99H200.06V191.04H192.01V182.99Z" fill="white"/>
</mask>
<g mask="url(#mask17_325_1277)">
<path d="M195.79 190.86L195.22 188.59C195.171 188.408 195.075 188.242 194.941 188.109C194.808 187.975 194.642 187.879 194.46 187.83L192.19 187.26C192.138 187.245 192.092 187.213 192.06 187.17C192.028 187.127 192.01 187.074 192.01 187.02C192.01 186.966 192.028 186.913 192.06 186.87C192.092 186.827 192.138 186.795 192.19 186.78L194.46 186.21C194.642 186.161 194.808 186.065 194.941 185.931C195.075 185.798 195.171 185.632 195.22 185.45L195.79 183.18C195.805 183.128 195.837 183.082 195.88 183.05C195.923 183.018 195.976 183 196.03 183C196.084 183 196.137 183.018 196.18 183.05C196.223 183.082 196.255 183.128 196.27 183.18L196.84 185.45C196.889 185.632 196.985 185.798 197.119 185.931C197.252 186.065 197.418 186.161 197.6 186.21L199.87 186.78C199.922 186.795 199.968 186.827 200 186.87C200.032 186.913 200.05 186.966 200.05 187.02C200.05 187.074 200.032 187.127 200 187.17C199.968 187.213 199.922 187.245 199.87 187.26L197.6 187.83C197.418 187.879 197.252 187.975 197.119 188.109C196.985 188.242 196.889 188.408 196.84 188.59L196.27 190.86C196.255 190.912 196.223 190.958 196.18 190.99C196.137 191.022 196.084 191.04 196.03 191.04C195.976 191.04 195.923 191.022 195.88 190.99C195.837 190.958 195.805 190.912 195.79 190.86Z" fill="#7B7C8E"/>
</g>
</g>
<mask id="mask18_325_1277" style="mask-type:luminance" maskUnits="userSpaceOnUse" x="155" y="111" width="9" height="10">
<path d="M155.01 111.99H163.06V120.04H155.01V111.99Z" fill="white"/>
</mask>
<g mask="url(#mask18_325_1277)">
<mask id="mask19_325_1277" style="mask-type:luminance" maskUnits="userSpaceOnUse" x="155" y="111" width="9" height="10">
<path d="M155.01 111.99H163.06V120.04H155.01V111.99Z" fill="white"/>
</mask>
<g mask="url(#mask19_325_1277)">
<path d="M158.79 119.86L158.22 117.59C158.171 117.408 158.075 117.242 157.941 117.109C157.808 116.975 157.642 116.879 157.46 116.83L155.19 116.26C155.138 116.245 155.092 116.213 155.06 116.17C155.028 116.127 155.01 116.074 155.01 116.02C155.01 115.966 155.028 115.913 155.06 115.87C155.092 115.827 155.138 115.795 155.19 115.78L157.46 115.21C157.642 115.161 157.808 115.065 157.941 114.931C158.075 114.798 158.171 114.632 158.22 114.45L158.79 112.18C158.805 112.128 158.837 112.082 158.88 112.05C158.923 112.018 158.976 112 159.03 112C159.084 112 159.137 112.018 159.18 112.05C159.223 112.082 159.255 112.128 159.27 112.18L159.84 114.45C159.889 114.632 159.985 114.798 160.119 114.931C160.252 115.065 160.418 115.161 160.6 115.21L162.87 115.78C162.922 115.795 162.968 115.827 163 115.87C163.032 115.913 163.05 115.966 163.05 116.02C163.05 116.074 163.032 116.127 163 116.17C162.968 116.213 162.922 116.245 162.87 116.26L160.6 116.83C160.418 116.879 160.252 116.975 160.119 117.109C159.985 117.242 159.889 117.408 159.84 117.59L159.27 119.86C159.255 119.912 159.223 119.958 159.18 119.99C159.137 120.022 159.084 120.04 159.03 120.04C158.976 120.04 158.923 120.022 158.88 119.99C158.837 119.958 158.805 119.912 158.79 119.86Z" fill="#7B7C8E"/>
</g>
</g>
<mask id="mask20_325_1277" style="mask-type:luminance" maskUnits="userSpaceOnUse" x="107" y="26" width="9" height="9">
<path d="M107.07 26.04H115.12V34.09H107.07V26.04Z" fill="white"/>
</mask>
<g mask="url(#mask20_325_1277)">
<mask id="mask21_325_1277" style="mask-type:luminance" maskUnits="userSpaceOnUse" x="107" y="26" width="9" height="9">
<path d="M107.07 26.04H115.12V34.09H107.07V26.04Z" fill="white"/>
</mask>
<g mask="url(#mask21_325_1277)">
<path d="M110.86 33.9L110.28 31.63C110.237 31.446 110.143 31.2778 110.008 31.1451C109.874 31.0123 109.705 30.9204 109.52 30.88L107.25 30.3C107.196 30.2888 107.147 30.2593 107.113 30.2165C107.078 30.1737 107.059 30.1202 107.059 30.065C107.059 30.0098 107.078 29.9563 107.113 29.9135C107.147 29.8707 107.196 29.8412 107.25 29.83L109.52 29.25C109.703 29.2026 109.87 29.1071 110.003 28.9735C110.137 28.8399 110.233 28.6729 110.28 28.49L110.86 26.22C110.871 26.166 110.901 26.1174 110.943 26.0826C110.986 26.0478 111.04 26.0287 111.095 26.0287C111.15 26.0287 111.204 26.0478 111.246 26.0826C111.289 26.1174 111.319 26.166 111.33 26.22L111.91 28.49C111.951 28.6759 112.045 28.8462 112.179 28.9808C112.314 29.1154 112.484 29.2088 112.67 29.25L114.94 29.83C114.994 29.8412 115.043 29.8707 115.077 29.9135C115.112 29.9563 115.131 30.0098 115.131 30.065C115.131 30.1202 115.112 30.1737 115.077 30.2165C115.043 30.2593 114.994 30.2888 114.94 30.3L112.67 30.88C112.485 30.9204 112.316 31.0123 112.182 31.1451C112.047 31.2778 111.953 31.446 111.91 31.63L111.33 33.9C111.319 33.9541 111.289 34.0026 111.246 34.0374C111.204 34.0723 111.15 34.0913 111.095 34.0913C111.04 34.0913 110.986 34.0723 110.943 34.0374C110.901 34.0026 110.871 33.9541 110.86 33.9Z" fill="#7B7C8E"/>
</g>
</g>
<mask id="mask22_325_1277" style="mask-type:luminance" maskUnits="userSpaceOnUse" x="95" y="80" width="9" height="10">
<path d="M95.01 80.99H103.06V89.04H95.01V80.99Z" fill="white"/>
</mask>
<g mask="url(#mask22_325_1277)">
<mask id="mask23_325_1277" style="mask-type:luminance" maskUnits="userSpaceOnUse" x="95" y="80" width="9" height="10">
<path d="M95.01 80.99H103.06V89.04H95.01V80.99Z" fill="white"/>
</mask>
<g mask="url(#mask23_325_1277)">
<path d="M98.79 88.86L98.22 86.59C98.1707 86.408 98.0746 86.2421 97.9413 86.1087C97.8079 85.9754 97.642 85.8793 97.46 85.83L95.19 85.26C95.1381 85.2449 95.0925 85.2133 95.06 85.17C95.0275 85.1267 95.01 85.0741 95.01 85.02C95.01 84.9659 95.0275 84.9133 95.06 84.87C95.0925 84.8267 95.1381 84.7951 95.19 84.78L97.46 84.21C97.642 84.1607 97.8079 84.0646 97.9413 83.9313C98.0746 83.7979 98.1707 83.632 98.22 83.45L98.79 81.18C98.8052 81.1281 98.8367 81.0825 98.88 81.05C98.9233 81.0175 98.9759 81 99.03 81C99.0841 81 99.1367 81.0175 99.18 81.05C99.2233 81.0825 99.2549 81.1281 99.27 81.18L99.84 83.45C99.8893 83.632 99.9854 83.7979 100.119 83.9313C100.252 84.0646 100.418 84.1607 100.6 84.21L102.87 84.78C102.922 84.7951 102.968 84.8267 103 84.87C103.032 84.9133 103.05 84.9659 103.05 85.02C103.05 85.0741 103.032 85.1267 103 85.17C102.968 85.2133 102.922 85.2449 102.87 85.26L100.6 85.83C100.418 85.8793 100.252 85.9754 100.119 86.1087C99.9854 86.2421 99.8893 86.408 99.84 86.59L99.27 88.86C99.2549 88.9119 99.2233 88.9575 99.18 88.99C99.1367 89.0225 99.0841 89.04 99.03 89.04C98.9759 89.04 98.9233 89.0225 98.88 88.99C98.8367 88.9575 98.8052 88.9119 98.79 88.86Z" fill="#7B7C8E"/>
</g>
</g>
<mask id="mask24_325_1277" style="mask-type:luminance" maskUnits="userSpaceOnUse" x="163" y="223" width="9" height="10">
<path d="M163.01 223.99H171.06V232.04H163.01V223.99Z" fill="white"/>
</mask>
<g mask="url(#mask24_325_1277)">
<mask id="mask25_325_1277" style="mask-type:luminance" maskUnits="userSpaceOnUse" x="163" y="223" width="9" height="10">
<path d="M163.01 223.99H171.06V232.04H163.01V223.99Z" fill="white"/>
</mask>
<g mask="url(#mask25_325_1277)">
<path d="M166.79 231.86L166.22 229.59C166.171 229.408 166.075 229.242 165.941 229.109C165.808 228.975 165.642 228.879 165.46 228.83L163.19 228.26C163.138 228.245 163.092 228.213 163.06 228.17C163.028 228.127 163.01 228.074 163.01 228.02C163.01 227.966 163.028 227.913 163.06 227.87C163.092 227.827 163.138 227.795 163.19 227.78L165.46 227.21C165.642 227.161 165.808 227.065 165.941 226.931C166.075 226.798 166.171 226.632 166.22 226.45L166.79 224.18C166.805 224.128 166.837 224.082 166.88 224.05C166.923 224.018 166.976 224 167.03 224C167.084 224 167.137 224.018 167.18 224.05C167.223 224.082 167.255 224.128 167.27 224.18L167.84 226.45C167.889 226.632 167.985 226.798 168.119 226.931C168.252 227.065 168.418 227.161 168.6 227.21L170.87 227.78C170.922 227.795 170.968 227.827 171 227.87C171.032 227.913 171.05 227.966 171.05 228.02C171.05 228.074 171.032 228.127 171 228.17C170.968 228.213 170.922 228.245 170.87 228.26L168.6 228.83C168.418 228.879 168.252 228.975 168.119 229.109C167.985 229.242 167.889 229.408 167.84 229.59L167.27 231.86C167.255 231.912 167.223 231.958 167.18 231.99C167.137 232.022 167.084 232.04 167.03 232.04C166.976 232.04 166.923 232.022 166.88 231.99C166.837 231.958 166.805 231.912 166.79 231.86Z" fill="#7B7C8E"/>
</g>
</g>
<mask id="mask26_325_1277" style="mask-type:luminance" maskUnits="userSpaceOnUse" x="83" y="218" width="9" height="10">
<path d="M83.01 218.99H91.06V227.04H83.01V218.99Z" fill="white"/>
</mask>
<g mask="url(#mask26_325_1277)">
<mask id="mask27_325_1277" style="mask-type:luminance" maskUnits="userSpaceOnUse" x="83" y="218" width="9" height="10">
<path d="M83.01 218.99H91.06V227.04H83.01V218.99Z" fill="white"/>
</mask>
<g mask="url(#mask27_325_1277)">
<path d="M86.79 226.86L86.22 224.59C86.1707 224.408 86.0746 224.242 85.9413 224.109C85.8079 223.975 85.642 223.879 85.46 223.83L83.19 223.26C83.1381 223.245 83.0925 223.213 83.06 223.17C83.0275 223.127 83.01 223.074 83.01 223.02C83.01 222.966 83.0275 222.913 83.06 222.87C83.0925 222.827 83.1381 222.795 83.19 222.78L85.46 222.21C85.642 222.161 85.8079 222.065 85.9413 221.931C86.0746 221.798 86.1707 221.632 86.22 221.45L86.79 219.18C86.8052 219.128 86.8367 219.082 86.88 219.05C86.9233 219.018 86.9759 219 87.03 219C87.0841 219 87.1367 219.018 87.18 219.05C87.2233 219.082 87.2549 219.128 87.27 219.18L87.84 221.45C87.8893 221.632 87.9854 221.798 88.1188 221.931C88.2521 222.065 88.418 222.161 88.6 222.21L90.87 222.78C90.9219 222.795 90.9676 222.827 91 222.87C91.0325 222.913 91.05 222.966 91.05 223.02C91.05 223.074 91.0325 223.127 91 223.17C90.9676 223.213 90.9219 223.245 90.87 223.26L88.6 223.83C88.418 223.879 88.2521 223.975 88.1188 224.109C87.9854 224.242 87.8893 224.408 87.84 224.59L87.27 226.86C87.2549 226.912 87.2233 226.958 87.18 226.99C87.1367 227.022 87.0841 227.04 87.03 227.04C86.9759 227.04 86.9233 227.022 86.88 226.99C86.8367 226.958 86.8052 226.912 86.79 226.86Z" fill="#7B7C8E"/>
</g>
</g>
<g opacity="0.3">
<mask id="mask28_325_1277" style="mask-type:luminance" maskUnits="userSpaceOnUse" x="211" y="47" width="4" height="4">
<path d="M211 47H214.99V50.99H211V47Z" fill="white"/>
</mask>
<g mask="url(#mask28_325_1277)">
<mask id="mask29_325_1277" style="mask-type:luminance" maskUnits="userSpaceOnUse" x="211" y="47" width="4" height="4">
<path d="M211 47H214.99V50.99H211V47Z" fill="white"/>
</mask>
<g mask="url(#mask29_325_1277)">
<path d="M212.88 50.9L212.6 49.77C212.575 49.6804 212.526 49.599 212.46 49.5341C212.393 49.4691 212.31 49.4229 212.22 49.4L211.09 49.11C211.065 49.1026 211.044 49.0874 211.028 49.0667C211.013 49.046 211.004 49.0209 211.004 48.995C211.004 48.9692 211.013 48.944 211.028 48.9233C211.044 48.9026 211.065 48.8874 211.09 48.88L212.22 48.59C212.312 48.5673 212.396 48.5199 212.463 48.4529C212.53 48.3859 212.577 48.302 212.6 48.21L212.88 47.09C212.89 47.0663 212.907 47.0461 212.928 47.0318C212.949 47.0176 212.974 47.01 213 47.01C213.026 47.01 213.051 47.0176 213.072 47.0318C213.093 47.0461 213.11 47.0663 213.12 47.09L213.4 48.21C213.423 48.302 213.47 48.3859 213.537 48.4529C213.604 48.5199 213.688 48.5673 213.78 48.59L214.91 48.88C214.935 48.8874 214.956 48.9026 214.972 48.9233C214.987 48.944 214.996 48.9692 214.996 48.995C214.996 49.0209 214.987 49.046 214.972 49.0667C214.956 49.0874 214.935 49.1026 214.91 49.11L213.78 49.4C213.69 49.4229 213.607 49.4691 213.54 49.5341C213.474 49.599 213.425 49.6804 213.4 49.77L213.12 50.9C213.12 50.9318 213.107 50.9624 213.085 50.9849C213.062 51.0074 213.032 51.02 213 51.02C212.968 51.02 212.938 51.0074 212.915 50.9849C212.893 50.9624 212.88 50.9318 212.88 50.9Z" fill="#7B7C8E"/>
</g>
</g>
</g>
<g opacity="0.3">
<mask id="mask30_325_1277" style="mask-type:luminance" maskUnits="userSpaceOnUse" x="221" y="107" width="4" height="4">
<path d="M221 107H224.99V110.99H221V107Z" fill="white"/>
</mask>
<g mask="url(#mask30_325_1277)">
<mask id="mask31_325_1277" style="mask-type:luminance" maskUnits="userSpaceOnUse" x="221" y="107" width="4" height="4">
<path d="M221 107H224.99V110.99H221V107Z" fill="white"/>
</mask>
<g mask="url(#mask31_325_1277)">
<path d="M222.88 110.9L222.6 109.77C222.575 109.68 222.526 109.599 222.46 109.534C222.393 109.469 222.31 109.423 222.22 109.4L221.09 109.11C221.065 109.103 221.044 109.087 221.028 109.067C221.013 109.046 221.004 109.021 221.004 108.995C221.004 108.969 221.013 108.944 221.028 108.923C221.044 108.903 221.065 108.887 221.09 108.88L222.22 108.59C222.312 108.567 222.396 108.52 222.463 108.453C222.53 108.386 222.577 108.302 222.6 108.21L222.88 107.09C222.89 107.066 222.907 107.046 222.928 107.032C222.949 107.018 222.974 107.01 223 107.01C223.026 107.01 223.051 107.018 223.072 107.032C223.093 107.046 223.11 107.066 223.12 107.09L223.4 108.21C223.423 108.302 223.47 108.386 223.537 108.453C223.604 108.52 223.688 108.567 223.78 108.59L224.91 108.88C224.935 108.887 224.956 108.903 224.972 108.923C224.987 108.944 224.996 108.969 224.996 108.995C224.996 109.021 224.987 109.046 224.972 109.067C224.956 109.087 224.935 109.103 224.91 109.11L223.78 109.4C223.69 109.423 223.607 109.469 223.54 109.534C223.474 109.599 223.425 109.68 223.4 109.77L223.12 110.9C223.12 110.932 223.107 110.962 223.085 110.985C223.062 111.007 223.032 111.02 223 111.02C222.968 111.02 222.938 111.007 222.915 110.985C222.893 110.962 222.88 110.932 222.88 110.9Z" fill="#7B7C8E"/>
</g>
</g>
</g>
<g opacity="0.3">
<mask id="mask32_325_1277" style="mask-type:luminance" maskUnits="userSpaceOnUse" x="221" y="167" width="4" height="4">
<path d="M221 167H224.99V170.99H221V167Z" fill="white"/>
</mask>
<g mask="url(#mask32_325_1277)">
<mask id="mask33_325_1277" style="mask-type:luminance" maskUnits="userSpaceOnUse" x="221" y="167" width="4" height="4">
<path d="M221 167H224.99V170.99H221V167Z" fill="white"/>
</mask>
<g mask="url(#mask33_325_1277)">
<path d="M222.88 170.9L222.6 169.77C222.575 169.68 222.526 169.599 222.46 169.534C222.393 169.469 222.31 169.423 222.22 169.4L221.09 169.11C221.065 169.103 221.044 169.087 221.028 169.067C221.013 169.046 221.004 169.021 221.004 168.995C221.004 168.969 221.013 168.944 221.028 168.923C221.044 168.903 221.065 168.887 221.09 168.88L222.22 168.59C222.312 168.567 222.396 168.52 222.463 168.453C222.53 168.386 222.577 168.302 222.6 168.21L222.88 167.09C222.88 167.058 222.893 167.028 222.915 167.005C222.938 166.983 222.968 166.97 223 166.97C223.032 166.97 223.062 166.983 223.085 167.005C223.107 167.028 223.12 167.058 223.12 167.09L223.4 168.21C223.423 168.302 223.47 168.386 223.537 168.453C223.604 168.52 223.688 168.567 223.78 168.59L224.91 168.88C224.935 168.887 224.956 168.903 224.972 168.923C224.987 168.944 224.996 168.969 224.996 168.995C224.996 169.021 224.987 169.046 224.972 169.067C224.956 169.087 224.935 169.103 224.91 169.11L223.78 169.4C223.69 169.423 223.607 169.469 223.54 169.534C223.474 169.599 223.425 169.68 223.4 169.77L223.12 170.9C223.12 170.932 223.107 170.962 223.085 170.985C223.062 171.007 223.032 171.02 223 171.02C222.968 171.02 222.938 171.007 222.915 170.985C222.893 170.962 222.88 170.932 222.88 170.9Z" fill="#7B7C8E"/>
</g>
</g>
</g>
<g opacity="0.3">
<mask id="mask34_325_1277" style="mask-type:luminance" maskUnits="userSpaceOnUse" x="191" y="207" width="4" height="4">
<path d="M191 207H194.99V210.99H191V207Z" fill="white"/>
</mask>
<g mask="url(#mask34_325_1277)">
<mask id="mask35_325_1277" style="mask-type:luminance" maskUnits="userSpaceOnUse" x="191" y="207" width="4" height="4">
<path d="M191 207H194.99V210.99H191V207Z" fill="white"/>
</mask>
<g mask="url(#mask35_325_1277)">
<path d="M192.88 210.9L192.6 209.77C192.575 209.68 192.526 209.599 192.46 209.534C192.393 209.469 192.31 209.423 192.22 209.4L191.09 209.11C191.065 209.103 191.044 209.087 191.028 209.067C191.013 209.046 191.004 209.021 191.004 208.995C191.004 208.969 191.013 208.944 191.028 208.923C191.044 208.903 191.065 208.887 191.09 208.88L192.22 208.59C192.312 208.567 192.396 208.52 192.463 208.453C192.53 208.386 192.577 208.302 192.6 208.21L192.88 207.09C192.88 207.058 192.893 207.028 192.915 207.005C192.938 206.983 192.968 206.97 193 206.97C193.032 206.97 193.062 206.983 193.085 207.005C193.107 207.028 193.12 207.058 193.12 207.09L193.4 208.21C193.423 208.302 193.47 208.386 193.537 208.453C193.604 208.52 193.688 208.567 193.78 208.59L194.91 208.88C194.935 208.887 194.956 208.903 194.972 208.923C194.987 208.944 194.996 208.969 194.996 208.995C194.996 209.021 194.987 209.046 194.972 209.067C194.956 209.087 194.935 209.103 194.91 209.11L193.78 209.4C193.69 209.423 193.607 209.469 193.54 209.534C193.474 209.599 193.425 209.68 193.4 209.77L193.12 210.9C193.12 210.932 193.107 210.962 193.085 210.985C193.062 211.007 193.032 211.02 193 211.02C192.968 211.02 192.938 211.007 192.915 210.985C192.893 210.962 192.88 210.932 192.88 210.9Z" fill="#7B7C8E"/>
</g>
</g>
</g>
<g opacity="0.3">
<mask id="mask36_325_1277" style="mask-type:luminance" maskUnits="userSpaceOnUse" x="121" y="227" width="4" height="4">
<path d="M121 227H124.99V230.99H121V227Z" fill="white"/>
</mask>
<g mask="url(#mask36_325_1277)">
<mask id="mask37_325_1277" style="mask-type:luminance" maskUnits="userSpaceOnUse" x="121" y="227" width="4" height="4">
<path d="M121 227H124.99V230.99H121V227Z" fill="white"/>
</mask>
<g mask="url(#mask37_325_1277)">
<path d="M122.88 230.9L122.6 229.77C122.575 229.68 122.526 229.599 122.46 229.534C122.393 229.469 122.31 229.423 122.22 229.4L121.09 229.11C121.065 229.103 121.044 229.087 121.028 229.067C121.013 229.046 121.004 229.021 121.004 228.995C121.004 228.969 121.013 228.944 121.028 228.923C121.044 228.903 121.065 228.887 121.09 228.88L122.22 228.59C122.312 228.567 122.396 228.52 122.463 228.453C122.53 228.386 122.577 228.302 122.6 228.21L122.88 227.09C122.88 227.058 122.893 227.028 122.915 227.005C122.938 226.983 122.968 226.97 123 226.97C123.032 226.97 123.062 226.983 123.085 227.005C123.107 227.028 123.12 227.058 123.12 227.09L123.4 228.21C123.423 228.302 123.47 228.386 123.537 228.453C123.604 228.52 123.688 228.567 123.78 228.59L124.91 228.88C124.935 228.887 124.956 228.903 124.972 228.923C124.987 228.944 124.996 228.969 124.996 228.995C124.996 229.021 124.987 229.046 124.972 229.067C124.956 229.087 124.935 229.103 124.91 229.11L123.78 229.4C123.69 229.423 123.607 229.469 123.54 229.534C123.474 229.599 123.425 229.68 123.4 229.77L123.12 230.9C123.12 230.932 123.107 230.962 123.085 230.985C123.062 231.007 123.032 231.02 123 231.02C122.968 231.02 122.938 231.007 122.915 230.985C122.893 230.962 122.88 230.932 122.88 230.9Z" fill="#7B7C8E"/>
</g>
</g>
</g>
<g opacity="0.3">
<mask id="mask38_325_1277" style="mask-type:luminance" maskUnits="userSpaceOnUse" x="61" y="197" width="4" height="4">
<path d="M61 197H64.99V200.99H61V197Z" fill="white"/>
</mask>
<g mask="url(#mask38_325_1277)">
<mask id="mask39_325_1277" style="mask-type:luminance" maskUnits="userSpaceOnUse" x="61" y="197" width="4" height="4">
<path d="M61 197H64.99V200.99H61V197Z" fill="white"/>
</mask>
<g mask="url(#mask39_325_1277)">
<path d="M62.88 200.9L62.6 199.77C62.5747 199.68 62.5263 199.599 62.4596 199.534C62.3929 199.469 62.3103 199.423 62.22 199.4L61.09 199.11C61.0652 199.103 61.0435 199.087 61.0281 199.067C61.0126 199.046 61.0043 199.021 61.0043 198.995C61.0043 198.969 61.0126 198.944 61.0281 198.923C61.0435 198.903 61.0652 198.887 61.09 198.88L62.22 198.59C62.3119 198.567 62.3959 198.52 62.4629 198.453C62.5299 198.386 62.5773 198.302 62.6 198.21L62.88 197.09C62.88 197.058 62.8926 197.028 62.9151 197.005C62.9376 196.983 62.9682 196.97 63 196.97C63.0318 196.97 63.0623 196.983 63.0848 197.005C63.1074 197.028 63.12 197.058 63.12 197.09L63.4 198.21C63.4227 198.302 63.4701 198.386 63.5371 198.453C63.6041 198.52 63.6881 198.567 63.78 198.59L64.91 198.88C64.9348 198.887 64.9565 198.903 64.9719 198.923C64.9874 198.944 64.9957 198.969 64.9957 198.995C64.9957 199.021 64.9874 199.046 64.9719 199.067C64.9565 199.087 64.9348 199.103 64.91 199.11L63.78 199.4C63.6897 199.423 63.6071 199.469 63.5404 199.534C63.4737 199.599 63.4253 199.68 63.4 199.77L63.12 200.9C63.1101 200.924 63.0935 200.944 63.0721 200.958C63.0507 200.972 63.0257 200.98 63 200.98C62.9743 200.98 62.9492 200.972 62.9279 200.958C62.9065 200.944 62.8899 200.924 62.88 200.9Z" fill="#7B7C8E"/>
</g>
</g>
</g>
<g opacity="0.3">
<mask id="mask40_325_1277" style="mask-type:luminance" maskUnits="userSpaceOnUse" x="21" y="157" width="4" height="4">
<path d="M21 157H24.99V160.99H21V157Z" fill="white"/>
</mask>
<g mask="url(#mask40_325_1277)">
<mask id="mask41_325_1277" style="mask-type:luminance" maskUnits="userSpaceOnUse" x="21" y="157" width="4" height="4">
<path d="M21 157H24.99V160.99H21V157Z" fill="white"/>
</mask>
<g mask="url(#mask41_325_1277)">
<path d="M22.88 160.9L22.6 159.77C22.5747 159.68 22.5263 159.599 22.4596 159.534C22.3929 159.469 22.3103 159.423 22.22 159.4L21.09 159.11C21.0652 159.103 21.0435 159.087 21.0281 159.067C21.0126 159.046 21.0043 159.021 21.0043 158.995C21.0043 158.969 21.0126 158.944 21.0281 158.923C21.0435 158.903 21.0652 158.887 21.09 158.88L22.22 158.59C22.3119 158.567 22.3959 158.52 22.4629 158.453C22.5299 158.386 22.5773 158.302 22.6 158.21L22.88 157.09C22.8899 157.066 22.9065 157.046 22.9279 157.032C22.9492 157.018 22.9743 157.01 23 157.01C23.0257 157.01 23.0508 157.018 23.0721 157.032C23.0935 157.046 23.1101 157.066 23.12 157.09L23.4 158.21C23.4227 158.302 23.4701 158.386 23.5371 158.453C23.6041 158.52 23.6881 158.567 23.78 158.59L24.91 158.88C24.9348 158.887 24.9565 158.903 24.9719 158.923C24.9874 158.944 24.9957 158.969 24.9957 158.995C24.9957 159.021 24.9874 159.046 24.9719 159.067C24.9565 159.087 24.9348 159.103 24.91 159.11L23.78 159.4C23.6897 159.423 23.6071 159.469 23.5404 159.534C23.4737 159.599 23.4253 159.68 23.4 159.77L23.12 160.9C23.12 160.932 23.1074 160.962 23.0848 160.985C23.0623 161.007 23.0318 161.02 23 161.02C22.9682 161.02 22.9376 161.007 22.9151 160.985C22.8926 160.962 22.88 160.932 22.88 160.9Z" fill="#7B7C8E"/>
</g>
</g>
</g>
<g opacity="0.3">
<mask id="mask42_325_1277" style="mask-type:luminance" maskUnits="userSpaceOnUse" x="31" y="77" width="4" height="4">
<path d="M31 77H34.99V80.99H31V77Z" fill="white"/>
</mask>
<g mask="url(#mask42_325_1277)">
<mask id="mask43_325_1277" style="mask-type:luminance" maskUnits="userSpaceOnUse" x="31" y="77" width="4" height="4">
<path d="M31 77H34.99V80.99H31V77Z" fill="white"/>
</mask>
<g mask="url(#mask43_325_1277)">
<path d="M32.88 80.9L32.6 79.77C32.5747 79.6804 32.5263 79.599 32.4596 79.534C32.3929 79.4691 32.3103 79.4229 32.22 79.4L31.09 79.11C31.0652 79.1026 31.0435 79.0874 31.0281 79.0667C31.0126 79.046 31.0043 79.0208 31.0043 78.995C31.0043 78.9692 31.0126 78.944 31.0281 78.9233C31.0435 78.9026 31.0652 78.8874 31.09 78.88L32.22 78.59C32.3119 78.5673 32.3959 78.5199 32.4629 78.4529C32.5299 78.3859 32.5773 78.3019 32.6 78.21L32.88 77.09C32.88 77.0582 32.8926 77.0277 32.9151 77.0051C32.9376 76.9826 32.9682 76.97 33 76.97C33.0318 76.97 33.0623 76.9826 33.0848 77.0051C33.1074 77.0277 33.12 77.0582 33.12 77.09L33.4 78.21C33.4227 78.3019 33.4701 78.3859 33.5371 78.4529C33.6041 78.5199 33.6881 78.5673 33.78 78.59L34.91 78.88C34.9348 78.8874 34.9565 78.9026 34.9719 78.9233C34.9874 78.944 34.9957 78.9692 34.9957 78.995C34.9957 79.0208 34.9874 79.046 34.9719 79.0667C34.9565 79.0874 34.9348 79.1026 34.91 79.11L33.78 79.4C33.6897 79.4229 33.6071 79.4691 33.5404 79.534C33.4737 79.599 33.4253 79.6804 33.4 79.77L33.12 80.9C33.1101 80.9237 33.0935 80.9439 33.0721 80.9582C33.0507 80.9724 33.0257 80.98 33 80.98C32.9743 80.98 32.9492 80.9724 32.9279 80.9582C32.9065 80.9439 32.8899 80.9237 32.88 80.9Z" fill="#7B7C8E"/>
</g>
</g>
</g>
<g opacity="0.3">
<mask id="mask44_325_1277" style="mask-type:luminance" maskUnits="userSpaceOnUse" x="71" y="47" width="4" height="4">
<path d="M71 47H74.99V50.99H71V47Z" fill="white"/>
</mask>
<g mask="url(#mask44_325_1277)">
<mask id="mask45_325_1277" style="mask-type:luminance" maskUnits="userSpaceOnUse" x="71" y="47" width="4" height="4">
<path d="M71 47H74.99V50.99H71V47Z" fill="white"/>
</mask>
<g mask="url(#mask45_325_1277)">
<path d="M72.88 50.9L72.6 49.77C72.5747 49.6804 72.5263 49.599 72.4596 49.534C72.3929 49.4691 72.3103 49.4229 72.22 49.4L71.09 49.11C71.0652 49.1026 71.0435 49.0874 71.0281 49.0667C71.0126 49.046 71.0043 49.0208 71.0043 48.995C71.0043 48.9692 71.0126 48.944 71.0281 48.9233C71.0435 48.9026 71.0652 48.8874 71.09 48.88L72.22 48.59C72.3119 48.5673 72.3959 48.5199 72.4629 48.4529C72.5299 48.3859 72.5773 48.3019 72.6 48.21L72.88 47.09C72.88 47.0582 72.8926 47.0277 72.9151 47.0051C72.9376 46.9826 72.9682 46.97 73 46.97C73.0318 46.97 73.0623 46.9826 73.0848 47.0051C73.1074 47.0277 73.12 47.0582 73.12 47.09L73.4 48.21C73.4227 48.3019 73.4701 48.3859 73.5371 48.4529C73.6041 48.5199 73.6881 48.5673 73.78 48.59L74.91 48.88C74.9348 48.8874 74.9565 48.9026 74.9719 48.9233C74.9874 48.944 74.9957 48.9692 74.9957 48.995C74.9957 49.0208 74.9874 49.046 74.9719 49.0667C74.9565 49.0874 74.9348 49.1026 74.91 49.11L73.78 49.4C73.6897 49.4229 73.6071 49.4691 73.5404 49.534C73.4737 49.599 73.4253 49.6804 73.4 49.77L73.12 50.9C73.12 50.9318 73.1074 50.9623 73.0848 50.9849C73.0623 51.0074 73.0318 51.02 73 51.02C72.9682 51.02 72.9376 51.0074 72.9151 50.9849C72.8926 50.9623 72.88 50.9318 72.88 50.9Z" fill="#7B7C8E"/>
</g>
</g>
</g>
<g opacity="0.3">
<mask id="mask46_325_1277" style="mask-type:luminance" maskUnits="userSpaceOnUse" x="111" y="7" width="4" height="4">
<path d="M111 7H114.99V10.99H111V7Z" fill="white"/>
</mask>
<g mask="url(#mask46_325_1277)">
<mask id="mask47_325_1277" style="mask-type:luminance" maskUnits="userSpaceOnUse" x="111" y="7" width="4" height="4">
<path d="M111 7H114.99V10.99H111V7Z" fill="white"/>
</mask>
<g mask="url(#mask47_325_1277)">
<path d="M112.88 10.9L112.6 9.77C112.575 9.68038 112.526 9.599 112.46 9.53405C112.393 9.4691 112.31 9.42286 112.22 9.4L111.09 9.11C111.065 9.10262 111.044 9.08744 111.028 9.06672C111.013 9.046 111.004 9.02084 111.004 8.995C111.004 8.96916 111.013 8.944 111.028 8.92328C111.044 8.90256 111.065 8.88738 111.09 8.88L112.22 8.59C112.312 8.56727 112.396 8.51986 112.463 8.4529C112.53 8.38593 112.577 8.30194 112.6 8.21L112.88 7.09C112.88 7.05818 112.893 7.02765 112.915 7.00515C112.938 6.98264 112.968 6.97 113 6.97C113.032 6.97 113.062 6.98264 113.085 7.00515C113.107 7.02765 113.12 7.05818 113.12 7.09L113.4 8.21C113.423 8.30194 113.47 8.38593 113.537 8.4529C113.604 8.51986 113.688 8.56727 113.78 8.59L114.91 8.88C114.935 8.88738 114.956 8.90256 114.972 8.92328C114.987 8.944 114.996 8.96916 114.996 8.995C114.996 9.02084 114.987 9.046 114.972 9.06672C114.956 9.08744 114.935 9.10262 114.91 9.11L113.78 9.4C113.69 9.42286 113.607 9.4691 113.54 9.53405C113.474 9.599 113.425 9.68038 113.4 9.77L113.12 10.9C113.11 10.9237 113.093 10.9439 113.072 10.9582C113.051 10.9724 113.026 10.98 113 10.98C112.974 10.98 112.949 10.9724 112.928 10.9582C112.907 10.9439 112.89 10.9237 112.88 10.9Z" fill="#7B7C8E"/>
</g>
</g>
</g>
<g opacity="0.3">
<mask id="mask48_325_1277" style="mask-type:luminance" maskUnits="userSpaceOnUse" x="161" y="47" width="4" height="4">
<path d="M161 47H164.99V50.99H161V47Z" fill="white"/>
</mask>
<g mask="url(#mask48_325_1277)">
<mask id="mask49_325_1277" style="mask-type:luminance" maskUnits="userSpaceOnUse" x="161" y="47" width="4" height="4">
<path d="M161 47H164.99V50.99H161V47Z" fill="white"/>
</mask>
<g mask="url(#mask49_325_1277)">
<path d="M162.88 50.9L162.6 49.77C162.575 49.6804 162.526 49.599 162.46 49.5341C162.393 49.4691 162.31 49.4229 162.22 49.4L161.09 49.11C161.065 49.1026 161.044 49.0874 161.028 49.0667C161.013 49.046 161.004 49.0209 161.004 48.995C161.004 48.9692 161.013 48.944 161.028 48.9233C161.044 48.9026 161.065 48.8874 161.09 48.88L162.22 48.59C162.312 48.5673 162.396 48.5199 162.463 48.4529C162.53 48.3859 162.577 48.302 162.6 48.21L162.88 47.09C162.89 47.0663 162.907 47.0461 162.928 47.0318C162.949 47.0176 162.974 47.01 163 47.01C163.026 47.01 163.051 47.0176 163.072 47.0318C163.093 47.0461 163.11 47.0663 163.12 47.09L163.4 48.21C163.423 48.302 163.47 48.3859 163.537 48.4529C163.604 48.5199 163.688 48.5673 163.78 48.59L164.91 48.88C164.935 48.8874 164.956 48.9026 164.972 48.9233C164.987 48.944 164.996 48.9692 164.996 48.995C164.996 49.0209 164.987 49.046 164.972 49.0667C164.956 49.0874 164.935 49.1026 164.91 49.11L163.78 49.4C163.69 49.4229 163.607 49.4691 163.54 49.5341C163.474 49.599 163.425 49.6804 163.4 49.77L163.12 50.9C163.12 50.9318 163.107 50.9624 163.085 50.9849C163.062 51.0074 163.032 51.02 163 51.02C162.968 51.02 162.938 51.0074 162.915 50.9849C162.893 50.9624 162.88 50.9318 162.88 50.9Z" fill="#7B7C8E"/>
</g>
</g>
</g>
<g opacity="0.3">
<mask id="mask50_325_1277" style="mask-type:luminance" maskUnits="userSpaceOnUse" x="121" y="97" width="4" height="4">
<path d="M121 97H124.99V100.99H121V97Z" fill="white"/>
</mask>
<g mask="url(#mask50_325_1277)">
<mask id="mask51_325_1277" style="mask-type:luminance" maskUnits="userSpaceOnUse" x="121" y="97" width="4" height="4">
<path d="M121 97H124.99V100.99H121V97Z" fill="white"/>
</mask>
<g mask="url(#mask51_325_1277)">
<path d="M122.88 100.9L122.6 99.77C122.575 99.6804 122.526 99.599 122.46 99.5341C122.393 99.4691 122.31 99.4229 122.22 99.4L121.09 99.11C121.065 99.1026 121.044 99.0874 121.028 99.0667C121.013 99.046 121.004 99.0209 121.004 98.995C121.004 98.9692 121.013 98.944 121.028 98.9233C121.044 98.9026 121.065 98.8874 121.09 98.88L122.22 98.59C122.312 98.5673 122.396 98.5199 122.463 98.4529C122.53 98.3859 122.577 98.3019 122.6 98.21L122.88 97.09C122.89 97.0663 122.907 97.0461 122.928 97.0318C122.949 97.0176 122.974 97.01 123 97.01C123.026 97.01 123.051 97.0176 123.072 97.0318C123.093 97.0461 123.11 97.0663 123.12 97.09L123.4 98.21C123.423 98.3019 123.47 98.3859 123.537 98.4529C123.604 98.5199 123.688 98.5673 123.78 98.59L124.91 98.88C124.935 98.8874 124.956 98.9026 124.972 98.9233C124.987 98.944 124.996 98.9692 124.996 98.995C124.996 99.0209 124.987 99.046 124.972 99.0667C124.956 99.0874 124.935 99.1026 124.91 99.11L123.78 99.4C123.69 99.4229 123.607 99.4691 123.54 99.5341C123.474 99.599 123.425 99.6804 123.4 99.77L123.12 100.9C123.12 100.932 123.107 100.962 123.085 100.985C123.062 101.007 123.032 101.02 123 101.02C122.968 101.02 122.938 101.007 122.915 100.985C122.893 100.962 122.88 100.932 122.88 100.9Z" fill="#7B7C8E"/>
</g>
</g>
</g>
<path d="M112.75 164.6L53.0301 199.17L22.8301 210.87L15.8101 198.75L41.8701 177.9L100.72 143.83L112.75 164.6Z" fill="#F1F2F5"/>
<path d="M102.32 140.6L39.14 177.17L32.85 184.27L23.44 191.49L22.22 189.85C22.0174 189.506 21.6879 189.256 21.3026 189.153C20.9172 189.05 20.5068 189.103 20.16 189.3L14.62 192.51C14.3711 192.656 14.1898 192.894 14.115 193.173C14.0401 193.452 14.0778 193.749 14.22 194L14.63 194.71C14.7014 194.834 14.7967 194.943 14.9103 195.03C15.0239 195.118 15.1536 195.182 15.292 195.219C15.4304 195.256 15.5748 195.266 15.7168 195.247C15.8589 195.228 15.9959 195.182 16.12 195.11L20.26 192.71L20.87 193.46L15.27 197.76C15.0132 197.957 14.8023 198.207 14.6521 198.494C14.5019 198.781 14.4158 199.097 14.4 199.42L14 209.14C13.9657 210.108 14.1115 211.075 14.43 211.99L11.75 212.67C11.454 212.711 11.1728 212.825 10.9311 213.001C10.6895 213.176 10.4949 213.409 10.3644 213.678C10.2339 213.947 10.1717 214.244 10.1831 214.542C10.1945 214.841 10.2793 215.132 10.43 215.39L12.98 219.79C13.1385 220.071 13.3687 220.305 13.6472 220.467C13.9257 220.63 14.2425 220.715 14.565 220.715C14.8875 220.715 15.2042 220.63 15.4827 220.467C15.7612 220.305 15.9914 220.071 16.15 219.79L17.42 217.5V217.4C17.6136 217.657 17.8949 217.833 18.2102 217.896C18.5255 217.958 18.8529 217.903 19.13 217.74C19.3266 217.625 19.4888 217.459 19.6 217.26L22.51 212.26L43.92 203.33L53.21 201.42L116.39 164.85L102.32 140.6ZM39.56 201.86L23.74 208.45L18.36 199.17L22.77 195.79L24.22 197.57C24.3682 197.743 24.5709 197.859 24.7945 197.901C25.0182 197.943 25.2493 197.907 25.45 197.8L26.4 197.25C26.5135 197.178 26.6113 197.084 26.6877 196.974C26.7641 196.863 26.8174 196.738 26.8445 196.607C26.8715 196.475 26.8718 196.339 26.8452 196.208C26.8187 196.076 26.7659 195.951 26.69 195.84L25.24 193.84L32 188.73L39.56 201.86ZM77.63 183.78L54.26 197.3L43.26 178.3L66.6 164.74L77.63 183.78ZM111.86 164L80.22 182.27L69.22 163.27L100.86 144.96L111.86 164Z" fill="#7B7C8E"/>
<path d="M90.559 146.246L116.524 131.218L131.551 157.183L105.586 172.211L90.559 146.246Z" fill="#F1F2F5"/>
<path d="M122.45 125.48L88.7 145L82.41 152.1L96.41 176.33L105.7 174.42L139.45 154.89C140.02 154.562 140.519 154.124 140.92 153.602C141.321 153.081 141.614 152.485 141.784 151.85C141.954 151.214 141.997 150.552 141.911 149.9C141.824 149.248 141.61 148.619 141.28 148.05L129.28 127.28C128.612 126.137 127.518 125.305 126.237 124.968C124.957 124.63 123.595 124.815 122.45 125.48ZM129 157.23L106.92 170L93.15 146.2L115.21 133.43L129 157.23ZM76.1 246.28L63.62 212H64.5C65.163 212 65.7989 211.737 66.2678 211.268C66.7366 210.799 67 210.163 67 209.5C67 208.837 66.7366 208.201 66.2678 207.732C65.7989 207.263 65.163 207 64.5 207H58.5C57.8369 207 57.2011 207.263 56.7322 207.732C56.2634 208.201 56 208.837 56 209.5C56 210.163 56.2634 210.799 56.7322 211.268C57.2011 211.737 57.8369 212 58.5 212H59.16L46.68 246.28C46.4983 246.779 46.5222 247.329 46.7463 247.81C46.9704 248.291 47.3764 248.663 47.875 248.845C48.3736 249.027 48.9239 249.003 49.405 248.779C49.886 248.555 50.2583 248.149 50.44 247.65L61.44 217.57L72.44 247.65C72.6217 248.149 72.994 248.555 73.475 248.779C73.956 249.003 74.5064 249.027 75.005 248.845C75.5036 248.663 75.9096 248.291 76.1337 247.81C76.3578 247.329 76.3817 246.779 76.2 246.28H76.1Z" fill="#7B7C8E"/>
<path d="M59 181H64V205H59V181Z" fill="#F1F2F5"/>
<path d="M61.5 182C61.8978 182 62.2794 182.158 62.5607 182.439C62.842 182.721 63 183.102 63 183.5V202.5C63 202.898 62.842 203.279 62.5607 203.561C62.2794 203.842 61.8978 204 61.5 204C61.1022 204 60.7207 203.842 60.4393 203.561C60.158 203.279 60 202.898 60 202.5V183.5C60 183.102 60.158 182.721 60.4393 182.439C60.7207 182.158 61.1022 182 61.5 182ZM61.5 179C60.9087 178.999 60.3229 179.114 59.7764 179.34C59.2298 179.566 58.7332 179.897 58.3151 180.315C57.897 180.733 57.5655 181.23 57.3399 181.776C57.1142 182.323 56.9987 182.909 57 183.5V202.5C57 203.693 57.4741 204.838 58.318 205.682C59.1619 206.526 60.3065 207 61.5 207C62.6935 207 63.8381 206.526 64.682 205.682C65.5259 204.838 66 203.693 66 202.5V183.5C66.0013 182.909 65.8858 182.323 65.6602 181.776C65.4345 181.23 65.1031 180.733 64.6849 180.315C64.2668 179.897 63.7702 179.566 63.2236 179.34C62.6771 179.114 62.0913 178.999 61.5 179Z" fill="#7B7C8E"/>
</g>
<defs>
<clipPath id="clip0_325_1277">
<rect width="250" height="250" fill="white"/>
</clipPath>
</defs>
</svg>
